<svg width="1040" height="982" viewBox="0 0 1040 982" fill="none" xmlns="http://www.w3.org/2000/svg">
<g clip-path="url(#clip0_120_2)">
<rect x="256" y="735" width="168" height="135" rx="14" fill="white" stroke="#848484" stroke-width="2"/>
<path d="M290.341 771.727V795H287.523V774.682H287.386L281.705 778.455V775.591L287.523 771.727H290.341ZM313.67 777.545V779.818H304.625V777.545H313.67ZM307.261 773.364H309.943V790C309.943 790.758 310.053 791.326 310.273 791.705C310.5 792.076 310.788 792.326 311.136 792.455C311.492 792.576 311.867 792.636 312.261 792.636C312.557 792.636 312.799 792.621 312.989 792.591C313.178 792.553 313.33 792.523 313.443 792.5L313.989 794.909C313.807 794.977 313.553 795.045 313.227 795.114C312.902 795.189 312.489 795.227 311.989 795.227C311.231 795.227 310.489 795.064 309.761 794.739C309.042 794.413 308.443 793.917 307.966 793.25C307.496 792.583 307.261 791.742 307.261 790.727V773.364ZM320.761 784.5V795H318.08V771.727H320.761V780.273H320.989C321.398 779.371 322.011 778.655 322.83 778.125C323.655 777.587 324.754 777.318 326.125 777.318C327.314 777.318 328.356 777.557 329.25 778.034C330.144 778.504 330.837 779.227 331.33 780.205C331.83 781.174 332.08 782.409 332.08 783.909V795H329.398V784.091C329.398 782.705 329.038 781.633 328.318 780.875C327.606 780.11 326.617 779.727 325.352 779.727C324.473 779.727 323.686 779.913 322.989 780.284C322.299 780.655 321.754 781.197 321.352 781.909C320.958 782.621 320.761 783.485 320.761 784.5ZM344.304 795.364C342.622 795.364 341.171 794.992 339.952 794.25C338.74 793.5 337.804 792.455 337.145 791.114C336.493 789.765 336.168 788.197 336.168 786.409C336.168 784.621 336.493 783.045 337.145 781.682C337.804 780.311 338.721 779.242 339.895 778.477C341.077 777.705 342.455 777.318 344.031 777.318C344.94 777.318 345.838 777.47 346.724 777.773C347.611 778.076 348.418 778.568 349.145 779.25C349.872 779.924 350.452 780.818 350.884 781.932C351.315 783.045 351.531 784.417 351.531 786.045V787.182H338.077V784.864H348.804C348.804 783.879 348.607 783 348.213 782.227C347.827 781.455 347.274 780.845 346.554 780.398C345.842 779.951 345.001 779.727 344.031 779.727C342.963 779.727 342.039 779.992 341.259 780.523C340.486 781.045 339.891 781.727 339.474 782.568C339.058 783.409 338.849 784.311 338.849 785.273V786.818C338.849 788.136 339.077 789.254 339.531 790.17C339.993 791.08 340.634 791.773 341.452 792.25C342.27 792.72 343.221 792.955 344.304 792.955C345.009 792.955 345.645 792.856 346.213 792.659C346.789 792.455 347.285 792.152 347.702 791.75C348.118 791.341 348.44 790.833 348.668 790.227L351.259 790.955C350.986 791.833 350.527 792.606 349.884 793.273C349.24 793.932 348.444 794.447 347.497 794.818C346.55 795.182 345.486 795.364 344.304 795.364ZM358.293 784.5V795H355.611V777.545H358.202V780.273H358.429C358.838 779.386 359.459 778.674 360.293 778.136C361.126 777.591 362.202 777.318 363.52 777.318C364.702 777.318 365.736 777.561 366.622 778.045C367.509 778.523 368.198 779.25 368.69 780.227C369.183 781.197 369.429 782.424 369.429 783.909V795H366.747V784.091C366.747 782.72 366.391 781.652 365.679 780.886C364.967 780.114 363.99 779.727 362.747 779.727C361.891 779.727 361.126 779.913 360.452 780.284C359.785 780.655 359.259 781.197 358.872 781.909C358.486 782.621 358.293 783.485 358.293 784.5ZM391.148 795.318C389.648 795.318 388.311 795.061 387.136 794.545C385.97 794.03 385.042 793.314 384.352 792.398C383.67 791.473 383.299 790.402 383.239 789.182H386.102C386.163 789.932 386.42 790.58 386.875 791.125C387.33 791.663 387.924 792.08 388.659 792.375C389.394 792.67 390.208 792.818 391.102 792.818C392.102 792.818 392.989 792.644 393.761 792.295C394.534 791.947 395.14 791.462 395.58 790.841C396.019 790.22 396.239 789.5 396.239 788.682C396.239 787.826 396.027 787.072 395.602 786.42C395.178 785.761 394.557 785.246 393.739 784.875C392.92 784.504 391.92 784.318 390.739 784.318H388.875V781.818H390.739C391.663 781.818 392.473 781.652 393.17 781.318C393.875 780.985 394.424 780.515 394.818 779.909C395.22 779.303 395.42 778.591 395.42 777.773C395.42 776.985 395.246 776.299 394.898 775.716C394.549 775.133 394.057 774.678 393.42 774.352C392.792 774.027 392.049 773.864 391.193 773.864C390.39 773.864 389.633 774.011 388.92 774.307C388.216 774.595 387.64 775.015 387.193 775.568C386.746 776.114 386.504 776.773 386.466 777.545H383.739C383.784 776.326 384.152 775.258 384.841 774.341C385.53 773.417 386.432 772.697 387.545 772.182C388.667 771.667 389.898 771.409 391.239 771.409C392.678 771.409 393.913 771.701 394.943 772.284C395.973 772.86 396.765 773.621 397.318 774.568C397.871 775.515 398.148 776.538 398.148 777.636C398.148 778.947 397.803 780.064 397.114 780.989C396.432 781.913 395.504 782.553 394.33 782.909V783.091C395.799 783.333 396.947 783.958 397.773 784.966C398.598 785.966 399.011 787.205 399.011 788.682C399.011 789.947 398.667 791.083 397.977 792.091C397.295 793.091 396.364 793.879 395.182 794.455C394 795.03 392.655 795.318 391.148 795.318ZM302.233 816.545V818.818H293.188V816.545H302.233ZM295.824 812.364H298.506V829C298.506 829.758 298.616 830.326 298.835 830.705C299.063 831.076 299.35 831.326 299.699 831.455C300.055 831.576 300.43 831.636 300.824 831.636C301.119 831.636 301.362 831.621 301.551 831.591C301.741 831.553 301.892 831.523 302.006 831.5L302.551 833.909C302.369 833.977 302.116 834.045 301.79 834.114C301.464 834.189 301.051 834.227 300.551 834.227C299.794 834.227 299.051 834.064 298.324 833.739C297.604 833.413 297.006 832.917 296.528 832.25C296.059 831.583 295.824 830.742 295.824 829.727V812.364ZM309.324 823.5V834H306.642V810.727H309.324V819.273H309.551C309.96 818.371 310.574 817.655 311.392 817.125C312.218 816.587 313.316 816.318 314.688 816.318C315.877 816.318 316.919 816.557 317.812 817.034C318.706 817.504 319.4 818.227 319.892 819.205C320.392 820.174 320.642 821.409 320.642 822.909V834H317.96V823.091C317.96 821.705 317.6 820.633 316.881 819.875C316.169 819.11 315.18 818.727 313.915 818.727C313.036 818.727 312.248 818.913 311.551 819.284C310.862 819.655 310.316 820.197 309.915 820.909C309.521 821.621 309.324 822.485 309.324 823.5ZM332.866 834.364C331.185 834.364 329.734 833.992 328.514 833.25C327.302 832.5 326.366 831.455 325.707 830.114C325.056 828.765 324.73 827.197 324.73 825.409C324.73 823.621 325.056 822.045 325.707 820.682C326.366 819.311 327.283 818.242 328.457 817.477C329.639 816.705 331.018 816.318 332.594 816.318C333.503 816.318 334.401 816.47 335.287 816.773C336.173 817.076 336.98 817.568 337.707 818.25C338.435 818.924 339.014 819.818 339.446 820.932C339.878 822.045 340.094 823.417 340.094 825.045V826.182H326.639V823.864H337.366C337.366 822.879 337.17 822 336.776 821.227C336.389 820.455 335.836 819.845 335.116 819.398C334.404 818.951 333.563 818.727 332.594 818.727C331.526 818.727 330.601 818.992 329.821 819.523C329.048 820.045 328.454 820.727 328.037 821.568C327.62 822.409 327.412 823.311 327.412 824.273V825.818C327.412 827.136 327.639 828.254 328.094 829.17C328.556 830.08 329.196 830.773 330.014 831.25C330.832 831.72 331.783 831.955 332.866 831.955C333.571 831.955 334.207 831.856 334.776 831.659C335.351 831.455 335.848 831.152 336.264 830.75C336.681 830.341 337.003 829.833 337.23 829.227L339.821 829.955C339.548 830.833 339.09 831.606 338.446 832.273C337.802 832.932 337.007 833.447 336.06 833.818C335.113 834.182 334.048 834.364 332.866 834.364ZM346.855 823.5V834H344.173V816.545H346.764V819.273H346.991C347.401 818.386 348.022 817.674 348.855 817.136C349.688 816.591 350.764 816.318 352.082 816.318C353.264 816.318 354.298 816.561 355.185 817.045C356.071 817.523 356.76 818.25 357.253 819.227C357.745 820.197 357.991 821.424 357.991 822.909V834H355.31V823.091C355.31 821.72 354.954 820.652 354.241 819.886C353.529 819.114 352.552 818.727 351.31 818.727C350.454 818.727 349.688 818.913 349.014 819.284C348.348 819.655 347.821 820.197 347.435 820.909C347.048 821.621 346.855 822.485 346.855 823.5ZM371.847 834V831.955L379.528 823.545C380.43 822.561 381.172 821.705 381.756 820.977C382.339 820.242 382.771 819.553 383.051 818.909C383.339 818.258 383.483 817.576 383.483 816.864C383.483 816.045 383.286 815.337 382.892 814.739C382.506 814.14 381.975 813.678 381.301 813.352C380.627 813.027 379.869 812.864 379.028 812.864C378.134 812.864 377.354 813.049 376.688 813.42C376.028 813.784 375.517 814.295 375.153 814.955C374.797 815.614 374.619 816.386 374.619 817.273H371.938C371.938 815.909 372.252 814.712 372.881 813.682C373.509 812.652 374.366 811.848 375.449 811.273C376.54 810.697 377.763 810.409 379.119 810.409C380.483 810.409 381.691 810.697 382.744 811.273C383.797 811.848 384.623 812.625 385.222 813.602C385.82 814.58 386.119 815.667 386.119 816.864C386.119 817.72 385.964 818.557 385.653 819.375C385.35 820.186 384.82 821.091 384.062 822.091C383.312 823.083 382.271 824.295 380.938 825.727L375.71 831.318V831.5H386.528V834H371.847Z" fill="black"/>
<rect x="611" y="735" width="168" height="135" rx="14" fill="white" stroke="#848484" stroke-width="2"/>
<path d="M646.023 795.318C644.523 795.318 643.186 795.061 642.011 794.545C640.845 794.03 639.917 793.314 639.227 792.398C638.545 791.473 638.174 790.402 638.114 789.182H640.977C641.038 789.932 641.295 790.58 641.75 791.125C642.205 791.663 642.799 792.08 643.534 792.375C644.269 792.67 645.083 792.818 645.977 792.818C646.977 792.818 647.864 792.644 648.636 792.295C649.409 791.947 650.015 791.462 650.455 790.841C650.894 790.22 651.114 789.5 651.114 788.682C651.114 787.826 650.902 787.072 650.477 786.42C650.053 785.761 649.432 785.246 648.614 784.875C647.795 784.504 646.795 784.318 645.614 784.318H643.75V781.818H645.614C646.538 781.818 647.348 781.652 648.045 781.318C648.75 780.985 649.299 780.515 649.693 779.909C650.095 779.303 650.295 778.591 650.295 777.773C650.295 776.985 650.121 776.299 649.773 775.716C649.424 775.133 648.932 774.678 648.295 774.352C647.667 774.027 646.924 773.864 646.068 773.864C645.265 773.864 644.508 774.011 643.795 774.307C643.091 774.595 642.515 775.015 642.068 775.568C641.621 776.114 641.379 776.773 641.341 777.545H638.614C638.659 776.326 639.027 775.258 639.716 774.341C640.405 773.417 641.307 772.697 642.42 772.182C643.542 771.667 644.773 771.409 646.114 771.409C647.553 771.409 648.788 771.701 649.818 772.284C650.848 772.86 651.64 773.621 652.193 774.568C652.746 775.515 653.023 776.538 653.023 777.636C653.023 778.947 652.678 780.064 651.989 780.989C651.307 781.913 650.379 782.553 649.205 782.909V783.091C650.674 783.333 651.822 783.958 652.648 784.966C653.473 785.966 653.886 787.205 653.886 788.682C653.886 789.947 653.542 791.083 652.852 792.091C652.17 793.091 651.239 793.879 650.057 794.455C648.875 795.03 647.53 795.318 646.023 795.318ZM675.17 777.545V779.818H666.125V777.545H675.17ZM668.761 773.364H671.443V790C671.443 790.758 671.553 791.326 671.773 791.705C672 792.076 672.288 792.326 672.636 792.455C672.992 792.576 673.367 792.636 673.761 792.636C674.057 792.636 674.299 792.621 674.489 792.591C674.678 792.553 674.83 792.523 674.943 792.5L675.489 794.909C675.307 794.977 675.053 795.045 674.727 795.114C674.402 795.189 673.989 795.227 673.489 795.227C672.731 795.227 671.989 795.064 671.261 794.739C670.542 794.413 669.943 793.917 669.466 793.25C668.996 792.583 668.761 791.742 668.761 790.727V773.364ZM682.261 784.5V795H679.58V771.727H682.261V780.273H682.489C682.898 779.371 683.511 778.655 684.33 778.125C685.155 777.587 686.254 777.318 687.625 777.318C688.814 777.318 689.856 777.557 690.75 778.034C691.644 778.504 692.337 779.227 692.83 780.205C693.33 781.174 693.58 782.409 693.58 783.909V795H690.898V784.091C690.898 782.705 690.538 781.633 689.818 780.875C689.106 780.11 688.117 779.727 686.852 779.727C685.973 779.727 685.186 779.913 684.489 780.284C683.799 780.655 683.254 781.197 682.852 781.909C682.458 782.621 682.261 783.485 682.261 784.5ZM705.804 795.364C704.122 795.364 702.671 794.992 701.452 794.25C700.24 793.5 699.304 792.455 698.645 791.114C697.993 789.765 697.668 788.197 697.668 786.409C697.668 784.621 697.993 783.045 698.645 781.682C699.304 780.311 700.221 779.242 701.395 778.477C702.577 777.705 703.955 777.318 705.531 777.318C706.44 777.318 707.338 777.47 708.224 777.773C709.111 778.076 709.918 778.568 710.645 779.25C711.372 779.924 711.952 780.818 712.384 781.932C712.815 783.045 713.031 784.417 713.031 786.045V787.182H699.577V784.864H710.304C710.304 783.879 710.107 783 709.713 782.227C709.327 781.455 708.774 780.845 708.054 780.398C707.342 779.951 706.501 779.727 705.531 779.727C704.463 779.727 703.539 779.992 702.759 780.523C701.986 781.045 701.391 781.727 700.974 782.568C700.558 783.409 700.349 784.311 700.349 785.273V786.818C700.349 788.136 700.577 789.254 701.031 790.17C701.493 791.08 702.134 791.773 702.952 792.25C703.77 792.72 704.721 792.955 705.804 792.955C706.509 792.955 707.145 792.856 707.713 792.659C708.289 792.455 708.785 792.152 709.202 791.75C709.618 791.341 709.94 790.833 710.168 790.227L712.759 790.955C712.486 791.833 712.027 792.606 711.384 793.273C710.74 793.932 709.944 794.447 708.997 794.818C708.05 795.182 706.986 795.364 705.804 795.364ZM719.793 784.5V795H717.111V777.545H719.702V780.273H719.929C720.338 779.386 720.959 778.674 721.793 778.136C722.626 777.591 723.702 777.318 725.02 777.318C726.202 777.318 727.236 777.561 728.122 778.045C729.009 778.523 729.698 779.25 730.19 780.227C730.683 781.197 730.929 782.424 730.929 783.909V795H728.247V784.091C728.247 782.72 727.891 781.652 727.179 780.886C726.467 780.114 725.49 779.727 724.247 779.727C723.391 779.727 722.626 779.913 721.952 780.284C721.285 780.655 720.759 781.197 720.372 781.909C719.986 782.621 719.793 783.485 719.793 784.5ZM752.966 771.727V795H750.148V774.682H750.011L744.33 778.455V775.591L750.148 771.727H752.966ZM658.233 816.545V818.818H649.188V816.545H658.233ZM651.824 812.364H654.506V829C654.506 829.758 654.616 830.326 654.835 830.705C655.063 831.076 655.35 831.326 655.699 831.455C656.055 831.576 656.43 831.636 656.824 831.636C657.119 831.636 657.362 831.621 657.551 831.591C657.741 831.553 657.892 831.523 658.006 831.5L658.551 833.909C658.369 833.977 658.116 834.045 657.79 834.114C657.464 834.189 657.051 834.227 656.551 834.227C655.794 834.227 655.051 834.064 654.324 833.739C653.604 833.413 653.006 832.917 652.528 832.25C652.059 831.583 651.824 830.742 651.824 829.727V812.364ZM665.324 823.5V834H662.642V810.727H665.324V819.273H665.551C665.96 818.371 666.574 817.655 667.392 817.125C668.218 816.587 669.316 816.318 670.688 816.318C671.877 816.318 672.919 816.557 673.812 817.034C674.706 817.504 675.4 818.227 675.892 819.205C676.392 820.174 676.642 821.409 676.642 822.909V834H673.96V823.091C673.96 821.705 673.6 820.633 672.881 819.875C672.169 819.11 671.18 818.727 669.915 818.727C669.036 818.727 668.248 818.913 667.551 819.284C666.862 819.655 666.316 820.197 665.915 820.909C665.521 821.621 665.324 822.485 665.324 823.5ZM688.866 834.364C687.185 834.364 685.734 833.992 684.514 833.25C683.302 832.5 682.366 831.455 681.707 830.114C681.056 828.765 680.73 827.197 680.73 825.409C680.73 823.621 681.056 822.045 681.707 820.682C682.366 819.311 683.283 818.242 684.457 817.477C685.639 816.705 687.018 816.318 688.594 816.318C689.503 816.318 690.401 816.47 691.287 816.773C692.173 817.076 692.98 817.568 693.707 818.25C694.435 818.924 695.014 819.818 695.446 820.932C695.878 822.045 696.094 823.417 696.094 825.045V826.182H682.639V823.864H693.366C693.366 822.879 693.17 822 692.776 821.227C692.389 820.455 691.836 819.845 691.116 819.398C690.404 818.951 689.563 818.727 688.594 818.727C687.526 818.727 686.601 818.992 685.821 819.523C685.048 820.045 684.454 820.727 684.037 821.568C683.62 822.409 683.412 823.311 683.412 824.273V825.818C683.412 827.136 683.639 828.254 684.094 829.17C684.556 830.08 685.196 830.773 686.014 831.25C686.832 831.72 687.783 831.955 688.866 831.955C689.571 831.955 690.207 831.856 690.776 831.659C691.351 831.455 691.848 831.152 692.264 830.75C692.681 830.341 693.003 829.833 693.23 829.227L695.821 829.955C695.548 830.833 695.09 831.606 694.446 832.273C693.802 832.932 693.007 833.447 692.06 833.818C691.113 834.182 690.048 834.364 688.866 834.364ZM702.855 823.5V834H700.173V816.545H702.764V819.273H702.991C703.401 818.386 704.022 817.674 704.855 817.136C705.688 816.591 706.764 816.318 708.082 816.318C709.264 816.318 710.298 816.561 711.185 817.045C712.071 817.523 712.76 818.25 713.253 819.227C713.745 820.197 713.991 821.424 713.991 822.909V834H711.31V823.091C711.31 821.72 710.954 820.652 710.241 819.886C709.529 819.114 708.552 818.727 707.31 818.727C706.454 818.727 705.688 818.913 705.014 819.284C704.348 819.655 703.821 820.197 703.435 820.909C703.048 821.621 702.855 822.485 702.855 823.5ZM727.847 834V831.955L735.528 823.545C736.43 822.561 737.172 821.705 737.756 820.977C738.339 820.242 738.771 819.553 739.051 818.909C739.339 818.258 739.483 817.576 739.483 816.864C739.483 816.045 739.286 815.337 738.892 814.739C738.506 814.14 737.975 813.678 737.301 813.352C736.627 813.027 735.869 812.864 735.028 812.864C734.134 812.864 733.354 813.049 732.688 813.42C732.028 813.784 731.517 814.295 731.153 814.955C730.797 815.614 730.619 816.386 730.619 817.273H727.938C727.938 815.909 728.252 814.712 728.881 813.682C729.509 812.652 730.366 811.848 731.449 811.273C732.54 810.697 733.763 810.409 735.119 810.409C736.483 810.409 737.691 810.697 738.744 811.273C739.797 811.848 740.623 812.625 741.222 813.602C741.82 814.58 742.119 815.667 742.119 816.864C742.119 817.72 741.964 818.557 741.653 819.375C741.35 820.186 740.82 821.091 740.062 822.091C739.312 823.083 738.271 824.295 736.938 825.727L731.71 831.318V831.5H742.528V834H727.847Z" fill="black"/>
<rect x="60" y="735" width="169" height="135" rx="14" fill="white" stroke="#848484" stroke-width="2"/>
<path d="M95.3409 771.727V795H92.5227V774.682H92.3864L86.7045 778.455V775.591L92.5227 771.727H95.3409ZM118.67 777.545V779.818H109.625V777.545H118.67ZM112.261 773.364H114.943V790C114.943 790.758 115.053 791.326 115.273 791.705C115.5 792.076 115.788 792.326 116.136 792.455C116.492 792.576 116.867 792.636 117.261 792.636C117.557 792.636 117.799 792.621 117.989 792.591C118.178 792.553 118.33 792.523 118.443 792.5L118.989 794.909C118.807 794.977 118.553 795.045 118.227 795.114C117.902 795.189 117.489 795.227 116.989 795.227C116.231 795.227 115.489 795.064 114.761 794.739C114.042 794.413 113.443 793.917 112.966 793.25C112.496 792.583 112.261 791.742 112.261 790.727V773.364ZM125.761 784.5V795H123.08V771.727H125.761V780.273H125.989C126.398 779.371 127.011 778.655 127.83 778.125C128.655 777.587 129.754 777.318 131.125 777.318C132.314 777.318 133.356 777.557 134.25 778.034C135.144 778.504 135.837 779.227 136.33 780.205C136.83 781.174 137.08 782.409 137.08 783.909V795H134.398V784.091C134.398 782.705 134.038 781.633 133.318 780.875C132.606 780.11 131.617 779.727 130.352 779.727C129.473 779.727 128.686 779.913 127.989 780.284C127.299 780.655 126.754 781.197 126.352 781.909C125.958 782.621 125.761 783.485 125.761 784.5ZM149.304 795.364C147.622 795.364 146.171 794.992 144.952 794.25C143.74 793.5 142.804 792.455 142.145 791.114C141.493 789.765 141.168 788.197 141.168 786.409C141.168 784.621 141.493 783.045 142.145 781.682C142.804 780.311 143.721 779.242 144.895 778.477C146.077 777.705 147.455 777.318 149.031 777.318C149.94 777.318 150.838 777.47 151.724 777.773C152.611 778.076 153.418 778.568 154.145 779.25C154.872 779.924 155.452 780.818 155.884 781.932C156.315 783.045 156.531 784.417 156.531 786.045V787.182H143.077V784.864H153.804C153.804 783.879 153.607 783 153.213 782.227C152.827 781.455 152.274 780.845 151.554 780.398C150.842 779.951 150.001 779.727 149.031 779.727C147.963 779.727 147.039 779.992 146.259 780.523C145.486 781.045 144.891 781.727 144.474 782.568C144.058 783.409 143.849 784.311 143.849 785.273V786.818C143.849 788.136 144.077 789.254 144.531 790.17C144.993 791.08 145.634 791.773 146.452 792.25C147.27 792.72 148.221 792.955 149.304 792.955C150.009 792.955 150.645 792.856 151.213 792.659C151.789 792.455 152.285 792.152 152.702 791.75C153.118 791.341 153.44 790.833 153.668 790.227L156.259 790.955C155.986 791.833 155.527 792.606 154.884 793.273C154.24 793.932 153.444 794.447 152.497 794.818C151.55 795.182 150.486 795.364 149.304 795.364ZM163.293 784.5V795H160.611V777.545H163.202V780.273H163.429C163.838 779.386 164.459 778.674 165.293 778.136C166.126 777.591 167.202 777.318 168.52 777.318C169.702 777.318 170.736 777.561 171.622 778.045C172.509 778.523 173.198 779.25 173.69 780.227C174.183 781.197 174.429 782.424 174.429 783.909V795H171.747V784.091C171.747 782.72 171.391 781.652 170.679 780.886C169.967 780.114 168.99 779.727 167.747 779.727C166.891 779.727 166.126 779.913 165.452 780.284C164.785 780.655 164.259 781.197 163.872 781.909C163.486 782.621 163.293 783.485 163.293 784.5ZM188.284 795V792.955L195.966 784.545C196.867 783.561 197.61 782.705 198.193 781.977C198.777 781.242 199.208 780.553 199.489 779.909C199.777 779.258 199.92 778.576 199.92 777.864C199.92 777.045 199.723 776.337 199.33 775.739C198.943 775.14 198.413 774.678 197.739 774.352C197.064 774.027 196.307 773.864 195.466 773.864C194.572 773.864 193.792 774.049 193.125 774.42C192.466 774.784 191.955 775.295 191.591 775.955C191.235 776.614 191.057 777.386 191.057 778.273H188.375C188.375 776.909 188.689 775.712 189.318 774.682C189.947 773.652 190.803 772.848 191.886 772.273C192.977 771.697 194.201 771.409 195.557 771.409C196.92 771.409 198.129 771.697 199.182 772.273C200.235 772.848 201.061 773.625 201.659 774.602C202.258 775.58 202.557 776.667 202.557 777.864C202.557 778.72 202.402 779.557 202.091 780.375C201.788 781.186 201.258 782.091 200.5 783.091C199.75 784.083 198.708 785.295 197.375 786.727L192.148 792.318V792.5H202.966V795H188.284ZM106.233 816.545V818.818H97.1875V816.545H106.233ZM99.8239 812.364H102.506V829C102.506 829.758 102.616 830.326 102.835 830.705C103.063 831.076 103.35 831.326 103.699 831.455C104.055 831.576 104.43 831.636 104.824 831.636C105.119 831.636 105.362 831.621 105.551 831.591C105.741 831.553 105.892 831.523 106.006 831.5L106.551 833.909C106.369 833.977 106.116 834.045 105.79 834.114C105.464 834.189 105.051 834.227 104.551 834.227C103.794 834.227 103.051 834.064 102.324 833.739C101.604 833.413 101.006 832.917 100.528 832.25C100.059 831.583 99.8239 830.742 99.8239 829.727V812.364ZM113.324 823.5V834H110.642V810.727H113.324V819.273H113.551C113.96 818.371 114.574 817.655 115.392 817.125C116.218 816.587 117.316 816.318 118.688 816.318C119.877 816.318 120.919 816.557 121.812 817.034C122.706 817.504 123.4 818.227 123.892 819.205C124.392 820.174 124.642 821.409 124.642 822.909V834H121.96V823.091C121.96 821.705 121.6 820.633 120.881 819.875C120.169 819.11 119.18 818.727 117.915 818.727C117.036 818.727 116.248 818.913 115.551 819.284C114.862 819.655 114.316 820.197 113.915 820.909C113.521 821.621 113.324 822.485 113.324 823.5ZM136.866 834.364C135.185 834.364 133.734 833.992 132.514 833.25C131.302 832.5 130.366 831.455 129.707 830.114C129.056 828.765 128.73 827.197 128.73 825.409C128.73 823.621 129.056 822.045 129.707 820.682C130.366 819.311 131.283 818.242 132.457 817.477C133.639 816.705 135.018 816.318 136.594 816.318C137.503 816.318 138.401 816.47 139.287 816.773C140.173 817.076 140.98 817.568 141.707 818.25C142.435 818.924 143.014 819.818 143.446 820.932C143.878 822.045 144.094 823.417 144.094 825.045V826.182H130.639V823.864H141.366C141.366 822.879 141.17 822 140.776 821.227C140.389 820.455 139.836 819.845 139.116 819.398C138.404 818.951 137.563 818.727 136.594 818.727C135.526 818.727 134.601 818.992 133.821 819.523C133.048 820.045 132.454 820.727 132.037 821.568C131.62 822.409 131.412 823.311 131.412 824.273V825.818C131.412 827.136 131.639 828.254 132.094 829.17C132.556 830.08 133.196 830.773 134.014 831.25C134.832 831.72 135.783 831.955 136.866 831.955C137.571 831.955 138.207 831.856 138.776 831.659C139.351 831.455 139.848 831.152 140.264 830.75C140.681 830.341 141.003 829.833 141.23 829.227L143.821 829.955C143.548 830.833 143.09 831.606 142.446 832.273C141.802 832.932 141.007 833.447 140.06 833.818C139.113 834.182 138.048 834.364 136.866 834.364ZM150.855 823.5V834H148.173V816.545H150.764V819.273H150.991C151.401 818.386 152.022 817.674 152.855 817.136C153.688 816.591 154.764 816.318 156.082 816.318C157.264 816.318 158.298 816.561 159.185 817.045C160.071 817.523 160.76 818.25 161.253 819.227C161.745 820.197 161.991 821.424 161.991 822.909V834H159.31V823.091C159.31 821.72 158.954 820.652 158.241 819.886C157.529 819.114 156.552 818.727 155.31 818.727C154.454 818.727 153.688 818.913 153.014 819.284C152.348 819.655 151.821 820.197 151.435 820.909C151.048 821.621 150.855 822.485 150.855 823.5ZM183.71 834.318C182.21 834.318 180.873 834.061 179.699 833.545C178.532 833.03 177.604 832.314 176.915 831.398C176.233 830.473 175.862 829.402 175.801 828.182H178.665C178.725 828.932 178.983 829.58 179.438 830.125C179.892 830.663 180.487 831.08 181.222 831.375C181.956 831.67 182.771 831.818 183.665 831.818C184.665 831.818 185.551 831.644 186.324 831.295C187.097 830.947 187.703 830.462 188.142 829.841C188.581 829.22 188.801 828.5 188.801 827.682C188.801 826.826 188.589 826.072 188.165 825.42C187.741 824.761 187.119 824.246 186.301 823.875C185.483 823.504 184.483 823.318 183.301 823.318H181.438V820.818H183.301C184.225 820.818 185.036 820.652 185.733 820.318C186.438 819.985 186.987 819.515 187.381 818.909C187.782 818.303 187.983 817.591 187.983 816.773C187.983 815.985 187.809 815.299 187.46 814.716C187.112 814.133 186.619 813.678 185.983 813.352C185.354 813.027 184.612 812.864 183.756 812.864C182.953 812.864 182.195 813.011 181.483 813.307C180.778 813.595 180.203 814.015 179.756 814.568C179.309 815.114 179.066 815.773 179.028 816.545H176.301C176.347 815.326 176.714 814.258 177.403 813.341C178.093 812.417 178.994 811.697 180.108 811.182C181.229 810.667 182.46 810.409 183.801 810.409C185.241 810.409 186.475 810.701 187.506 811.284C188.536 811.86 189.328 812.621 189.881 813.568C190.434 814.515 190.71 815.538 190.71 816.636C190.71 817.947 190.366 819.064 189.676 819.989C188.994 820.913 188.066 821.553 186.892 821.909V822.091C188.362 822.333 189.509 822.958 190.335 823.966C191.161 824.966 191.574 826.205 191.574 827.682C191.574 828.947 191.229 830.083 190.54 831.091C189.858 832.091 188.926 832.879 187.744 833.455C186.563 834.03 185.218 834.318 183.71 834.318Z" fill="black"/>
<path d="M696 733L710.434 708H681.566L696 733ZM693.5 637V710.5H698.5V637H693.5Z" fill="black"/>
<path d="M145 733L159.434 708H130.566L145 733ZM142.5 637V710.5H147.5V637H142.5Z" fill="black"/>
<path d="M735.488 501.681L756.751 487.847L734.287 469.717L735.488 501.681ZM770.15 416.543L742.571 479.501L746.462 482.642L774.041 419.684L770.15 416.543Z" fill="black"/>
<path d="M855.296 501.681L856.267 469.686L833.961 488.01L855.296 501.681ZM815.092 417.442L844.201 482.718L848.064 479.544L818.956 414.268L815.092 417.442Z" fill="black"/>
<path d="M316.16 291.633L340.831 287.004L327.388 261.458L316.16 291.633ZM431.476 176.492L331.15 273.759L333.479 278.184L433.804 180.917L431.476 176.492Z" fill="black"/>
<path d="M713.856 287.116L702.064 257.201L689.047 282.967L713.856 287.116ZM596.249 180.936L696.259 274.018L698.513 269.555L598.503 176.473L596.249 180.936Z" fill="black"/>
<rect x="806" y="502" width="169" height="134" rx="14" fill="white" stroke="#848484" stroke-width="2"/>
<path d="M841.523 578.318C840.023 578.318 838.686 578.061 837.511 577.545C836.345 577.03 835.417 576.314 834.727 575.398C834.045 574.473 833.674 573.402 833.614 572.182H836.477C836.538 572.932 836.795 573.58 837.25 574.125C837.705 574.663 838.299 575.08 839.034 575.375C839.769 575.67 840.583 575.818 841.477 575.818C842.477 575.818 843.364 575.644 844.136 575.295C844.909 574.947 845.515 574.462 845.955 573.841C846.394 573.22 846.614 572.5 846.614 571.682C846.614 570.826 846.402 570.072 845.977 569.42C845.553 568.761 844.932 568.246 844.114 567.875C843.295 567.504 842.295 567.318 841.114 567.318H839.25V564.818H841.114C842.038 564.818 842.848 564.652 843.545 564.318C844.25 563.985 844.799 563.515 845.193 562.909C845.595 562.303 845.795 561.591 845.795 560.773C845.795 559.985 845.621 559.299 845.273 558.716C844.924 558.133 844.432 557.678 843.795 557.352C843.167 557.027 842.424 556.864 841.568 556.864C840.765 556.864 840.008 557.011 839.295 557.307C838.591 557.595 838.015 558.015 837.568 558.568C837.121 559.114 836.879 559.773 836.841 560.545H834.114C834.159 559.326 834.527 558.258 835.216 557.341C835.905 556.417 836.807 555.697 837.92 555.182C839.042 554.667 840.273 554.409 841.614 554.409C843.053 554.409 844.288 554.701 845.318 555.284C846.348 555.86 847.14 556.621 847.693 557.568C848.246 558.515 848.523 559.538 848.523 560.636C848.523 561.947 848.178 563.064 847.489 563.989C846.807 564.913 845.879 565.553 844.705 565.909V566.091C846.174 566.333 847.322 566.958 848.148 567.966C848.973 568.966 849.386 570.205 849.386 571.682C849.386 572.947 849.042 574.083 848.352 575.091C847.67 576.091 846.739 576.879 845.557 577.455C844.375 578.03 843.03 578.318 841.523 578.318ZM870.67 560.545V562.818H861.625V560.545H870.67ZM864.261 556.364H866.943V573C866.943 573.758 867.053 574.326 867.273 574.705C867.5 575.076 867.788 575.326 868.136 575.455C868.492 575.576 868.867 575.636 869.261 575.636C869.557 575.636 869.799 575.621 869.989 575.591C870.178 575.553 870.33 575.523 870.443 575.5L870.989 577.909C870.807 577.977 870.553 578.045 870.227 578.114C869.902 578.189 869.489 578.227 868.989 578.227C868.231 578.227 867.489 578.064 866.761 577.739C866.042 577.413 865.443 576.917 864.966 576.25C864.496 575.583 864.261 574.742 864.261 573.727V556.364ZM877.761 567.5V578H875.08V554.727H877.761V563.273H877.989C878.398 562.371 879.011 561.655 879.83 561.125C880.655 560.587 881.754 560.318 883.125 560.318C884.314 560.318 885.356 560.557 886.25 561.034C887.144 561.504 887.837 562.227 888.33 563.205C888.83 564.174 889.08 565.409 889.08 566.909V578H886.398V567.091C886.398 565.705 886.038 564.633 885.318 563.875C884.606 563.11 883.617 562.727 882.352 562.727C881.473 562.727 880.686 562.913 879.989 563.284C879.299 563.655 878.754 564.197 878.352 564.909C877.958 565.621 877.761 566.485 877.761 567.5ZM901.304 578.364C899.622 578.364 898.171 577.992 896.952 577.25C895.74 576.5 894.804 575.455 894.145 574.114C893.493 572.765 893.168 571.197 893.168 569.409C893.168 567.621 893.493 566.045 894.145 564.682C894.804 563.311 895.721 562.242 896.895 561.477C898.077 560.705 899.455 560.318 901.031 560.318C901.94 560.318 902.838 560.47 903.724 560.773C904.611 561.076 905.418 561.568 906.145 562.25C906.872 562.924 907.452 563.818 907.884 564.932C908.315 566.045 908.531 567.417 908.531 569.045V570.182H895.077V567.864H905.804C905.804 566.879 905.607 566 905.213 565.227C904.827 564.455 904.274 563.845 903.554 563.398C902.842 562.951 902.001 562.727 901.031 562.727C899.963 562.727 899.039 562.992 898.259 563.523C897.486 564.045 896.891 564.727 896.474 565.568C896.058 566.409 895.849 567.311 895.849 568.273V569.818C895.849 571.136 896.077 572.254 896.531 573.17C896.993 574.08 897.634 574.773 898.452 575.25C899.27 575.72 900.221 575.955 901.304 575.955C902.009 575.955 902.645 575.856 903.213 575.659C903.789 575.455 904.285 575.152 904.702 574.75C905.118 574.341 905.44 573.833 905.668 573.227L908.259 573.955C907.986 574.833 907.527 575.606 906.884 576.273C906.24 576.932 905.444 577.447 904.497 577.818C903.55 578.182 902.486 578.364 901.304 578.364ZM915.293 567.5V578H912.611V560.545H915.202V563.273H915.429C915.838 562.386 916.459 561.674 917.293 561.136C918.126 560.591 919.202 560.318 920.52 560.318C921.702 560.318 922.736 560.561 923.622 561.045C924.509 561.523 925.198 562.25 925.69 563.227C926.183 564.197 926.429 565.424 926.429 566.909V578H923.747V567.091C923.747 565.72 923.391 564.652 922.679 563.886C921.967 563.114 920.99 562.727 919.747 562.727C918.891 562.727 918.126 562.913 917.452 563.284C916.785 563.655 916.259 564.197 915.872 564.909C915.486 565.621 915.293 566.485 915.293 567.5ZM948.466 554.727V578H945.648V557.682H945.511L939.83 561.455V558.591L945.648 554.727H948.466Z" fill="black"/>
<rect x="611" y="502" width="168" height="134" rx="14" fill="white" stroke="#848484" stroke-width="2"/>
<path d="M646.023 578.318C644.523 578.318 643.186 578.061 642.011 577.545C640.845 577.03 639.917 576.314 639.227 575.398C638.545 574.473 638.174 573.402 638.114 572.182H640.977C641.038 572.932 641.295 573.58 641.75 574.125C642.205 574.663 642.799 575.08 643.534 575.375C644.269 575.67 645.083 575.818 645.977 575.818C646.977 575.818 647.864 575.644 648.636 575.295C649.409 574.947 650.015 574.462 650.455 573.841C650.894 573.22 651.114 572.5 651.114 571.682C651.114 570.826 650.902 570.072 650.477 569.42C650.053 568.761 649.432 568.246 648.614 567.875C647.795 567.504 646.795 567.318 645.614 567.318H643.75V564.818H645.614C646.538 564.818 647.348 564.652 648.045 564.318C648.75 563.985 649.299 563.515 649.693 562.909C650.095 562.303 650.295 561.591 650.295 560.773C650.295 559.985 650.121 559.299 649.773 558.716C649.424 558.133 648.932 557.678 648.295 557.352C647.667 557.027 646.924 556.864 646.068 556.864C645.265 556.864 644.508 557.011 643.795 557.307C643.091 557.595 642.515 558.015 642.068 558.568C641.621 559.114 641.379 559.773 641.341 560.545H638.614C638.659 559.326 639.027 558.258 639.716 557.341C640.405 556.417 641.307 555.697 642.42 555.182C643.542 554.667 644.773 554.409 646.114 554.409C647.553 554.409 648.788 554.701 649.818 555.284C650.848 555.86 651.64 556.621 652.193 557.568C652.746 558.515 653.023 559.538 653.023 560.636C653.023 561.947 652.678 563.064 651.989 563.989C651.307 564.913 650.379 565.553 649.205 565.909V566.091C650.674 566.333 651.822 566.958 652.648 567.966C653.473 568.966 653.886 570.205 653.886 571.682C653.886 572.947 653.542 574.083 652.852 575.091C652.17 576.091 651.239 576.879 650.057 577.455C648.875 578.03 647.53 578.318 646.023 578.318ZM675.17 560.545V562.818H666.125V560.545H675.17ZM668.761 556.364H671.443V573C671.443 573.758 671.553 574.326 671.773 574.705C672 575.076 672.288 575.326 672.636 575.455C672.992 575.576 673.367 575.636 673.761 575.636C674.057 575.636 674.299 575.621 674.489 575.591C674.678 575.553 674.83 575.523 674.943 575.5L675.489 577.909C675.307 577.977 675.053 578.045 674.727 578.114C674.402 578.189 673.989 578.227 673.489 578.227C672.731 578.227 671.989 578.064 671.261 577.739C670.542 577.413 669.943 576.917 669.466 576.25C668.996 575.583 668.761 574.742 668.761 573.727V556.364ZM682.261 567.5V578H679.58V554.727H682.261V563.273H682.489C682.898 562.371 683.511 561.655 684.33 561.125C685.155 560.587 686.254 560.318 687.625 560.318C688.814 560.318 689.856 560.557 690.75 561.034C691.644 561.504 692.337 562.227 692.83 563.205C693.33 564.174 693.58 565.409 693.58 566.909V578H690.898V567.091C690.898 565.705 690.538 564.633 689.818 563.875C689.106 563.11 688.117 562.727 686.852 562.727C685.973 562.727 685.186 562.913 684.489 563.284C683.799 563.655 683.254 564.197 682.852 564.909C682.458 565.621 682.261 566.485 682.261 567.5ZM705.804 578.364C704.122 578.364 702.671 577.992 701.452 577.25C700.24 576.5 699.304 575.455 698.645 574.114C697.993 572.765 697.668 571.197 697.668 569.409C697.668 567.621 697.993 566.045 698.645 564.682C699.304 563.311 700.221 562.242 701.395 561.477C702.577 560.705 703.955 560.318 705.531 560.318C706.44 560.318 707.338 560.47 708.224 560.773C709.111 561.076 709.918 561.568 710.645 562.25C711.372 562.924 711.952 563.818 712.384 564.932C712.815 566.045 713.031 567.417 713.031 569.045V570.182H699.577V567.864H710.304C710.304 566.879 710.107 566 709.713 565.227C709.327 564.455 708.774 563.845 708.054 563.398C707.342 562.951 706.501 562.727 705.531 562.727C704.463 562.727 703.539 562.992 702.759 563.523C701.986 564.045 701.391 564.727 700.974 565.568C700.558 566.409 700.349 567.311 700.349 568.273V569.818C700.349 571.136 700.577 572.254 701.031 573.17C701.493 574.08 702.134 574.773 702.952 575.25C703.77 575.72 704.721 575.955 705.804 575.955C706.509 575.955 707.145 575.856 707.713 575.659C708.289 575.455 708.785 575.152 709.202 574.75C709.618 574.341 709.94 573.833 710.168 573.227L712.759 573.955C712.486 574.833 712.027 575.606 711.384 576.273C710.74 576.932 709.944 577.447 708.997 577.818C708.05 578.182 706.986 578.364 705.804 578.364ZM719.793 567.5V578H717.111V560.545H719.702V563.273H719.929C720.338 562.386 720.959 561.674 721.793 561.136C722.626 560.591 723.702 560.318 725.02 560.318C726.202 560.318 727.236 560.561 728.122 561.045C729.009 561.523 729.698 562.25 730.19 563.227C730.683 564.197 730.929 565.424 730.929 566.909V578H728.247V567.091C728.247 565.72 727.891 564.652 727.179 563.886C726.467 563.114 725.49 562.727 724.247 562.727C723.391 562.727 722.626 562.913 721.952 563.284C721.285 563.655 720.759 564.197 720.372 564.909C719.986 565.621 719.793 566.485 719.793 567.5ZM752.966 554.727V578H750.148V557.682H750.011L744.33 561.455V558.591L750.148 554.727H752.966Z" fill="black"/>
<rect x="256" y="502" width="168" height="134" rx="14" fill="white" stroke="#848484" stroke-width="2"/>
<path d="M290.341 554.727V578H287.523V557.682H287.386L281.705 561.455V558.591L287.523 554.727H290.341ZM313.67 560.545V562.818H304.625V560.545H313.67ZM307.261 556.364H309.943V573C309.943 573.758 310.053 574.326 310.273 574.705C310.5 575.076 310.788 575.326 311.136 575.455C311.492 575.576 311.867 575.636 312.261 575.636C312.557 575.636 312.799 575.621 312.989 575.591C313.178 575.553 313.33 575.523 313.443 575.5L313.989 577.909C313.807 577.977 313.553 578.045 313.227 578.114C312.902 578.189 312.489 578.227 311.989 578.227C311.231 578.227 310.489 578.064 309.761 577.739C309.042 577.413 308.443 576.917 307.966 576.25C307.496 575.583 307.261 574.742 307.261 573.727V556.364ZM320.761 567.5V578H318.08V554.727H320.761V563.273H320.989C321.398 562.371 322.011 561.655 322.83 561.125C323.655 560.587 324.754 560.318 326.125 560.318C327.314 560.318 328.356 560.557 329.25 561.034C330.144 561.504 330.837 562.227 331.33 563.205C331.83 564.174 332.08 565.409 332.08 566.909V578H329.398V567.091C329.398 565.705 329.038 564.633 328.318 563.875C327.606 563.11 326.617 562.727 325.352 562.727C324.473 562.727 323.686 562.913 322.989 563.284C322.299 563.655 321.754 564.197 321.352 564.909C320.958 565.621 320.761 566.485 320.761 567.5ZM344.304 578.364C342.622 578.364 341.171 577.992 339.952 577.25C338.74 576.5 337.804 575.455 337.145 574.114C336.493 572.765 336.168 571.197 336.168 569.409C336.168 567.621 336.493 566.045 337.145 564.682C337.804 563.311 338.721 562.242 339.895 561.477C341.077 560.705 342.455 560.318 344.031 560.318C344.94 560.318 345.838 560.47 346.724 560.773C347.611 561.076 348.418 561.568 349.145 562.25C349.872 562.924 350.452 563.818 350.884 564.932C351.315 566.045 351.531 567.417 351.531 569.045V570.182H338.077V567.864H348.804C348.804 566.879 348.607 566 348.213 565.227C347.827 564.455 347.274 563.845 346.554 563.398C345.842 562.951 345.001 562.727 344.031 562.727C342.963 562.727 342.039 562.992 341.259 563.523C340.486 564.045 339.891 564.727 339.474 565.568C339.058 566.409 338.849 567.311 338.849 568.273V569.818C338.849 571.136 339.077 572.254 339.531 573.17C339.993 574.08 340.634 574.773 341.452 575.25C342.27 575.72 343.221 575.955 344.304 575.955C345.009 575.955 345.645 575.856 346.213 575.659C346.789 575.455 347.285 575.152 347.702 574.75C348.118 574.341 348.44 573.833 348.668 573.227L351.259 573.955C350.986 574.833 350.527 575.606 349.884 576.273C349.24 576.932 348.444 577.447 347.497 577.818C346.55 578.182 345.486 578.364 344.304 578.364ZM358.293 567.5V578H355.611V560.545H358.202V563.273H358.429C358.838 562.386 359.459 561.674 360.293 561.136C361.126 560.591 362.202 560.318 363.52 560.318C364.702 560.318 365.736 560.561 366.622 561.045C367.509 561.523 368.198 562.25 368.69 563.227C369.183 564.197 369.429 565.424 369.429 566.909V578H366.747V567.091C366.747 565.72 366.391 564.652 365.679 563.886C364.967 563.114 363.99 562.727 362.747 562.727C361.891 562.727 361.126 562.913 360.452 563.284C359.785 563.655 359.259 564.197 358.872 564.909C358.486 565.621 358.293 566.485 358.293 567.5ZM391.148 578.318C389.648 578.318 388.311 578.061 387.136 577.545C385.97 577.03 385.042 576.314 384.352 575.398C383.67 574.473 383.299 573.402 383.239 572.182H386.102C386.163 572.932 386.42 573.58 386.875 574.125C387.33 574.663 387.924 575.08 388.659 575.375C389.394 575.67 390.208 575.818 391.102 575.818C392.102 575.818 392.989 575.644 393.761 575.295C394.534 574.947 395.14 574.462 395.58 573.841C396.019 573.22 396.239 572.5 396.239 571.682C396.239 570.826 396.027 570.072 395.602 569.42C395.178 568.761 394.557 568.246 393.739 567.875C392.92 567.504 391.92 567.318 390.739 567.318H388.875V564.818H390.739C391.663 564.818 392.473 564.652 393.17 564.318C393.875 563.985 394.424 563.515 394.818 562.909C395.22 562.303 395.42 561.591 395.42 560.773C395.42 559.985 395.246 559.299 394.898 558.716C394.549 558.133 394.057 557.678 393.42 557.352C392.792 557.027 392.049 556.864 391.193 556.864C390.39 556.864 389.633 557.011 388.92 557.307C388.216 557.595 387.64 558.015 387.193 558.568C386.746 559.114 386.504 559.773 386.466 560.545H383.739C383.784 559.326 384.152 558.258 384.841 557.341C385.53 556.417 386.432 555.697 387.545 555.182C388.667 554.667 389.898 554.409 391.239 554.409C392.678 554.409 393.913 554.701 394.943 555.284C395.973 555.86 396.765 556.621 397.318 557.568C397.871 558.515 398.148 559.538 398.148 560.636C398.148 561.947 397.803 563.064 397.114 563.989C396.432 564.913 395.504 565.553 394.33 565.909V566.091C395.799 566.333 396.947 566.958 397.773 567.966C398.598 568.966 399.011 570.205 399.011 571.682C399.011 572.947 398.667 574.083 397.977 575.091C397.295 576.091 396.364 576.879 395.182 577.455C394 578.03 392.655 578.318 391.148 578.318Z" fill="black"/>
<rect x="60" y="502" width="169" height="134" rx="14" fill="white" stroke="#848484" stroke-width="2"/>
<path d="M95.3409 554.727V578H92.5227V557.682H92.3864L86.7045 561.455V558.591L92.5227 554.727H95.3409ZM118.67 560.545V562.818H109.625V560.545H118.67ZM112.261 556.364H114.943V573C114.943 573.758 115.053 574.326 115.273 574.705C115.5 575.076 115.788 575.326 116.136 575.455C116.492 575.576 116.867 575.636 117.261 575.636C117.557 575.636 117.799 575.621 117.989 575.591C118.178 575.553 118.33 575.523 118.443 575.5L118.989 577.909C118.807 577.977 118.553 578.045 118.227 578.114C117.902 578.189 117.489 578.227 116.989 578.227C116.231 578.227 115.489 578.064 114.761 577.739C114.042 577.413 113.443 576.917 112.966 576.25C112.496 575.583 112.261 574.742 112.261 573.727V556.364ZM125.761 567.5V578H123.08V554.727H125.761V563.273H125.989C126.398 562.371 127.011 561.655 127.83 561.125C128.655 560.587 129.754 560.318 131.125 560.318C132.314 560.318 133.356 560.557 134.25 561.034C135.144 561.504 135.837 562.227 136.33 563.205C136.83 564.174 137.08 565.409 137.08 566.909V578H134.398V567.091C134.398 565.705 134.038 564.633 133.318 563.875C132.606 563.11 131.617 562.727 130.352 562.727C129.473 562.727 128.686 562.913 127.989 563.284C127.299 563.655 126.754 564.197 126.352 564.909C125.958 565.621 125.761 566.485 125.761 567.5ZM149.304 578.364C147.622 578.364 146.171 577.992 144.952 577.25C143.74 576.5 142.804 575.455 142.145 574.114C141.493 572.765 141.168 571.197 141.168 569.409C141.168 567.621 141.493 566.045 142.145 564.682C142.804 563.311 143.721 562.242 144.895 561.477C146.077 560.705 147.455 560.318 149.031 560.318C149.94 560.318 150.838 560.47 151.724 560.773C152.611 561.076 153.418 561.568 154.145 562.25C154.872 562.924 155.452 563.818 155.884 564.932C156.315 566.045 156.531 567.417 156.531 569.045V570.182H143.077V567.864H153.804C153.804 566.879 153.607 566 153.213 565.227C152.827 564.455 152.274 563.845 151.554 563.398C150.842 562.951 150.001 562.727 149.031 562.727C147.963 562.727 147.039 562.992 146.259 563.523C145.486 564.045 144.891 564.727 144.474 565.568C144.058 566.409 143.849 567.311 143.849 568.273V569.818C143.849 571.136 144.077 572.254 144.531 573.17C144.993 574.08 145.634 574.773 146.452 575.25C147.27 575.72 148.221 575.955 149.304 575.955C150.009 575.955 150.645 575.856 151.213 575.659C151.789 575.455 152.285 575.152 152.702 574.75C153.118 574.341 153.44 573.833 153.668 573.227L156.259 573.955C155.986 574.833 155.527 575.606 154.884 576.273C154.24 576.932 153.444 577.447 152.497 577.818C151.55 578.182 150.486 578.364 149.304 578.364ZM163.293 567.5V578H160.611V560.545H163.202V563.273H163.429C163.838 562.386 164.459 561.674 165.293 561.136C166.126 560.591 167.202 560.318 168.52 560.318C169.702 560.318 170.736 560.561 171.622 561.045C172.509 561.523 173.198 562.25 173.69 563.227C174.183 564.197 174.429 565.424 174.429 566.909V578H171.747V567.091C171.747 565.72 171.391 564.652 170.679 563.886C169.967 563.114 168.99 562.727 167.747 562.727C166.891 562.727 166.126 562.913 165.452 563.284C164.785 563.655 164.259 564.197 163.872 564.909C163.486 565.621 163.293 566.485 163.293 567.5ZM188.284 578V575.955L195.966 567.545C196.867 566.561 197.61 565.705 198.193 564.977C198.777 564.242 199.208 563.553 199.489 562.909C199.777 562.258 199.92 561.576 199.92 560.864C199.92 560.045 199.723 559.337 199.33 558.739C198.943 558.14 198.413 557.678 197.739 557.352C197.064 557.027 196.307 556.864 195.466 556.864C194.572 556.864 193.792 557.049 193.125 557.42C192.466 557.784 191.955 558.295 191.591 558.955C191.235 559.614 191.057 560.386 191.057 561.273H188.375C188.375 559.909 188.689 558.712 189.318 557.682C189.947 556.652 190.803 555.848 191.886 555.273C192.977 554.697 194.201 554.409 195.557 554.409C196.92 554.409 198.129 554.697 199.182 555.273C200.235 555.848 201.061 556.625 201.659 557.602C202.258 558.58 202.557 559.667 202.557 560.864C202.557 561.72 202.402 562.557 202.091 563.375C201.788 564.186 201.258 565.091 200.5 566.091C199.75 567.083 198.708 568.295 197.375 569.727L192.148 575.318V575.5H202.966V578H188.284Z" fill="black"/>
<rect x="153" y="281" width="168" height="134" rx="14" fill="white" stroke="#848484" stroke-width="2"/>
<path d="M238.653 333.727V357H235.835V336.682H235.699L230.017 340.455V337.591L235.835 333.727H238.653Z" fill="black"/>
<rect x="430" y="281" width="169" height="134" rx="14" fill="white" stroke="#848484" stroke-width="2"/>
<path d="M505.222 357V354.955L512.903 346.545C513.805 345.561 514.547 344.705 515.131 343.977C515.714 343.242 516.146 342.553 516.426 341.909C516.714 341.258 516.858 340.576 516.858 339.864C516.858 339.045 516.661 338.337 516.267 337.739C515.881 337.14 515.35 336.678 514.676 336.352C514.002 336.027 513.244 335.864 512.403 335.864C511.509 335.864 510.729 336.049 510.062 336.42C509.403 336.784 508.892 337.295 508.528 337.955C508.172 338.614 507.994 339.386 507.994 340.273H505.312C505.312 338.909 505.627 337.712 506.256 336.682C506.884 335.652 507.741 334.848 508.824 334.273C509.915 333.697 511.138 333.409 512.494 333.409C513.858 333.409 515.066 333.697 516.119 334.273C517.172 334.848 517.998 335.625 518.597 336.602C519.195 337.58 519.494 338.667 519.494 339.864C519.494 340.72 519.339 341.557 519.028 342.375C518.725 343.186 518.195 344.091 517.438 345.091C516.688 346.083 515.646 347.295 514.312 348.727L509.085 354.318V354.5H519.903V357H505.222Z" fill="black"/>
<rect x="705" y="281" width="170" height="134" rx="14" fill="white" stroke="#848484" stroke-width="2"/>
<path d="M788.585 357.318C787.085 357.318 785.748 357.061 784.574 356.545C783.407 356.03 782.479 355.314 781.79 354.398C781.108 353.473 780.737 352.402 780.676 351.182H783.54C783.6 351.932 783.858 352.58 784.312 353.125C784.767 353.663 785.362 354.08 786.097 354.375C786.831 354.67 787.646 354.818 788.54 354.818C789.54 354.818 790.426 354.644 791.199 354.295C791.972 353.947 792.578 353.462 793.017 352.841C793.456 352.22 793.676 351.5 793.676 350.682C793.676 349.826 793.464 349.072 793.04 348.42C792.616 347.761 791.994 347.246 791.176 346.875C790.358 346.504 789.358 346.318 788.176 346.318H786.312V343.818H788.176C789.1 343.818 789.911 343.652 790.608 343.318C791.313 342.985 791.862 342.515 792.256 341.909C792.657 341.303 792.858 340.591 792.858 339.773C792.858 338.985 792.684 338.299 792.335 337.716C791.987 337.133 791.494 336.678 790.858 336.352C790.229 336.027 789.487 335.864 788.631 335.864C787.828 335.864 787.07 336.011 786.358 336.307C785.653 336.595 785.078 337.015 784.631 337.568C784.184 338.114 783.941 338.773 783.903 339.545H781.176C781.222 338.326 781.589 337.258 782.278 336.341C782.968 335.417 783.869 334.697 784.983 334.182C786.104 333.667 787.335 333.409 788.676 333.409C790.116 333.409 791.35 333.701 792.381 334.284C793.411 334.86 794.203 335.621 794.756 336.568C795.309 337.515 795.585 338.538 795.585 339.636C795.585 340.947 795.241 342.064 794.551 342.989C793.869 343.913 792.941 344.553 791.767 344.909V345.091C793.237 345.333 794.384 345.958 795.21 346.966C796.036 347.966 796.449 349.205 796.449 350.682C796.449 351.947 796.104 353.083 795.415 354.091C794.733 355.091 793.801 355.879 792.619 356.455C791.438 357.03 790.093 357.318 788.585 357.318Z" fill="black"/>
<path d="M512 280L526.434 255H497.566L512 280ZM509.5 194V257.5H514.5V194H509.5Z" fill="black"/>
<path d="M341 733L355.434 708H326.566L341 733ZM338.5 637V710.5H343.5V637H338.5Z" fill="black"/>
<path d="M176.384 501.681L197.647 487.847L175.183 469.717L176.384 501.681ZM211.046 416.543L183.467 479.501L187.358 482.642L214.937 419.684L211.046 416.543Z" fill="black"/>
<path d="M302.848 503.939L303.819 471.944L281.514 490.269L302.848 503.939ZM262.644 419.7L291.753 484.977L295.616 481.803L266.508 416.527L262.644 419.7Z" fill="black"/>
<rect x="430" y="60" width="169" height="133" rx="14" fill="white" stroke="#848484" stroke-width="2"/>
<path d="M481.271 137V113.727H489.135C490.953 113.727 492.446 114.038 493.612 114.659C494.779 115.273 495.643 116.117 496.203 117.193C496.764 118.269 497.044 119.492 497.044 120.864C497.044 122.235 496.764 123.451 496.203 124.511C495.643 125.572 494.783 126.405 493.624 127.011C492.464 127.61 490.983 127.909 489.18 127.909H482.817V125.364H489.089C490.332 125.364 491.332 125.182 492.089 124.818C492.855 124.455 493.408 123.939 493.749 123.273C494.097 122.598 494.271 121.795 494.271 120.864C494.271 119.932 494.097 119.117 493.749 118.42C493.4 117.723 492.843 117.186 492.078 116.807C491.313 116.42 490.302 116.227 489.044 116.227H484.089V137H481.271ZM492.226 126.545L497.953 137H494.68L489.044 126.545H492.226ZM508.28 137.364C506.704 137.364 505.321 136.989 504.132 136.239C502.95 135.489 502.026 134.439 501.359 133.091C500.7 131.742 500.371 130.167 500.371 128.364C500.371 126.545 500.7 124.958 501.359 123.602C502.026 122.246 502.95 121.193 504.132 120.443C505.321 119.693 506.704 119.318 508.28 119.318C509.856 119.318 511.234 119.693 512.416 120.443C513.606 121.193 514.53 122.246 515.189 123.602C515.856 124.958 516.189 126.545 516.189 128.364C516.189 130.167 515.856 131.742 515.189 133.091C514.53 134.439 513.606 135.489 512.416 136.239C511.234 136.989 509.856 137.364 508.28 137.364ZM508.28 134.955C509.477 134.955 510.462 134.648 511.234 134.034C512.007 133.42 512.579 132.614 512.95 131.614C513.321 130.614 513.507 129.53 513.507 128.364C513.507 127.197 513.321 126.11 512.95 125.102C512.579 124.095 512.007 123.28 511.234 122.659C510.462 122.038 509.477 121.727 508.28 121.727C507.083 121.727 506.098 122.038 505.325 122.659C504.553 123.28 503.981 124.095 503.609 125.102C503.238 126.11 503.053 127.197 503.053 128.364C503.053 129.53 503.238 130.614 503.609 131.614C503.981 132.614 504.553 133.42 505.325 134.034C506.098 134.648 507.083 134.955 508.28 134.955ZM527.374 137.364C525.798 137.364 524.415 136.989 523.226 136.239C522.044 135.489 521.12 134.439 520.453 133.091C519.794 131.742 519.464 130.167 519.464 128.364C519.464 126.545 519.794 124.958 520.453 123.602C521.12 122.246 522.044 121.193 523.226 120.443C524.415 119.693 525.798 119.318 527.374 119.318C528.949 119.318 530.328 119.693 531.51 120.443C532.699 121.193 533.624 122.246 534.283 123.602C534.949 124.958 535.283 126.545 535.283 128.364C535.283 130.167 534.949 131.742 534.283 133.091C533.624 134.439 532.699 135.489 531.51 136.239C530.328 136.989 528.949 137.364 527.374 137.364ZM527.374 134.955C528.571 134.955 529.555 134.648 530.328 134.034C531.101 133.42 531.673 132.614 532.044 131.614C532.415 130.614 532.601 129.53 532.601 128.364C532.601 127.197 532.415 126.11 532.044 125.102C531.673 124.095 531.101 123.28 530.328 122.659C529.555 122.038 528.571 121.727 527.374 121.727C526.177 121.727 525.192 122.038 524.419 122.659C523.646 123.28 523.074 124.095 522.703 125.102C522.332 126.11 522.146 127.197 522.146 128.364C522.146 129.53 522.332 130.614 522.703 131.614C523.074 132.614 523.646 133.42 524.419 134.034C525.192 134.648 526.177 134.955 527.374 134.955ZM546.967 119.545V121.818H537.922V119.545H546.967ZM540.558 115.364H543.24V132C543.24 132.758 543.35 133.326 543.57 133.705C543.797 134.076 544.085 134.326 544.433 134.455C544.789 134.576 545.164 134.636 545.558 134.636C545.854 134.636 546.096 134.621 546.286 134.591C546.475 134.553 546.626 134.523 546.74 134.5L547.286 136.909C547.104 136.977 546.85 137.045 546.524 137.114C546.198 137.189 545.786 137.227 545.286 137.227C544.528 137.227 543.786 137.064 543.058 136.739C542.339 136.413 541.74 135.917 541.263 135.25C540.793 134.583 540.558 133.742 540.558 132.727V115.364Z" fill="black"/>
</g>
<defs>
<clipPath id="clip0_120_2">
<rect width="1040" height="982" fill="white"/>
</clipPath>
</defs>
</svg>
