<svg width="1040" height="982" viewBox="0 0 1040 982" fill="none" xmlns="http://www.w3.org/2000/svg">
<rect width="1040" height="982" fill="white"/>
<circle cx="202" cy="491" r="98.5" fill="#FFF479" stroke="black" stroke-width="3"/>
<circle cx="788" cy="176" r="98.5" fill="#E599B3" stroke="black" stroke-width="3"/>
<circle cx="788" cy="810" r="98.5" fill="#E599B3" stroke="black" stroke-width="3"/>
<path d="M200.25 529H177.807V456.273H201.244C208.299 456.273 214.336 457.729 219.355 460.641C224.374 463.529 228.221 467.684 230.896 473.105C233.571 478.503 234.909 484.966 234.909 492.494C234.909 500.07 233.56 506.592 230.861 512.061C228.162 517.506 224.232 521.696 219.071 524.632C213.91 527.544 207.636 529 200.25 529ZM186.614 521.188H199.682C205.695 521.188 210.679 520.027 214.632 517.707C218.586 515.387 221.533 512.085 223.474 507.8C225.416 503.515 226.386 498.413 226.386 492.494C226.386 486.623 225.428 481.569 223.51 477.331C221.592 473.07 218.728 469.803 214.916 467.53C211.105 465.233 206.358 464.085 200.676 464.085H186.614V521.188Z" fill="black"/>
<path d="M784.33 797H775.523C775.002 794.467 774.09 792.241 772.788 790.324C771.51 788.406 769.947 786.796 768.101 785.494C766.278 784.169 764.254 783.174 762.028 782.511C759.803 781.848 757.483 781.517 755.068 781.517C750.665 781.517 746.676 782.63 743.101 784.855C739.55 787.08 736.721 790.359 734.614 794.692C732.53 799.024 731.489 804.339 731.489 810.636C731.489 816.934 732.53 822.249 734.614 826.581C736.721 830.913 739.55 834.192 743.101 836.418C746.676 838.643 750.665 839.756 755.068 839.756C757.483 839.756 759.803 839.424 762.028 838.761C764.254 838.098 766.278 837.116 768.101 835.814C769.947 834.488 771.51 832.866 772.788 830.949C774.09 829.008 775.002 826.782 775.523 824.273H784.33C783.667 827.99 782.459 831.316 780.707 834.251C778.955 837.187 776.777 839.685 774.173 841.744C771.569 843.78 768.645 845.331 765.402 846.396C762.182 847.462 758.738 847.994 755.068 847.994C748.866 847.994 743.349 846.479 738.52 843.449C733.69 840.419 729.891 836.11 727.121 830.523C724.351 824.936 722.966 818.307 722.966 810.636C722.966 802.966 724.351 796.337 727.121 790.75C729.891 785.163 733.69 780.854 738.52 777.824C743.349 774.794 748.866 773.278 755.068 773.278C758.738 773.278 762.182 773.811 765.402 774.876C768.645 775.942 771.569 777.504 774.173 779.564C776.777 781.6 778.955 784.086 780.707 787.021C782.459 789.933 783.667 793.259 784.33 797ZM797.282 847V840.608L821.288 814.33C824.105 811.252 826.425 808.577 828.248 806.304C830.071 804.008 831.421 801.853 832.297 799.841C833.196 797.805 833.646 795.674 833.646 793.449C833.646 790.892 833.03 788.679 831.799 786.808C830.592 784.938 828.935 783.494 826.828 782.476C824.721 781.458 822.353 780.949 819.725 780.949C816.932 780.949 814.493 781.529 812.41 782.689C810.35 783.825 808.752 785.423 807.616 787.483C806.503 789.543 805.947 791.957 805.947 794.727H797.566C797.566 790.466 798.549 786.725 800.514 783.506C802.479 780.286 805.154 777.777 808.539 775.977C811.949 774.178 815.772 773.278 820.01 773.278C824.271 773.278 828.047 774.178 831.338 775.977C834.628 777.777 837.209 780.203 839.079 783.257C840.949 786.311 841.885 789.708 841.885 793.449C841.885 796.124 841.399 798.74 840.429 801.297C839.482 803.83 837.824 806.659 835.457 809.784C833.113 812.885 829.858 816.673 825.691 821.148L809.356 838.619V839.188H843.163V847H797.282Z" fill="black"/>
<path d="M792.33 163H783.523C783.002 160.467 782.09 158.241 780.788 156.324C779.51 154.406 777.947 152.796 776.101 151.494C774.278 150.169 772.254 149.174 770.028 148.511C767.803 147.848 765.483 147.517 763.068 147.517C758.665 147.517 754.676 148.63 751.101 150.855C747.55 153.08 744.721 156.359 742.614 160.692C740.53 165.024 739.489 170.339 739.489 176.636C739.489 182.934 740.53 188.249 742.614 192.581C744.721 196.913 747.55 200.192 751.101 202.418C754.676 204.643 758.665 205.756 763.068 205.756C765.483 205.756 767.803 205.424 770.028 204.761C772.254 204.098 774.278 203.116 776.101 201.814C777.947 200.488 779.51 198.866 780.788 196.949C782.09 195.008 783.002 192.782 783.523 190.273H792.33C791.667 193.99 790.459 197.316 788.707 200.251C786.955 203.187 784.777 205.685 782.173 207.744C779.569 209.78 776.645 211.331 773.402 212.396C770.182 213.462 766.738 213.994 763.068 213.994C756.866 213.994 751.349 212.479 746.52 209.449C741.69 206.419 737.891 202.11 735.121 196.523C732.351 190.936 730.966 184.307 730.966 176.636C730.966 168.966 732.351 162.337 735.121 156.75C737.891 151.163 741.69 146.854 746.52 143.824C751.349 140.794 756.866 139.278 763.068 139.278C766.738 139.278 770.182 139.811 773.402 140.876C776.645 141.942 779.569 143.504 782.173 145.564C784.777 147.6 786.955 150.086 788.707 153.021C790.459 155.933 791.667 159.259 792.33 163ZM830.85 140.273V213H822.044V149.506H821.618L803.862 161.295V152.347L822.044 140.273H830.85Z" fill="black"/>
<path d="M688 176L636.039 175.715L661.773 220.857L688 176ZM269.229 419.909L655.044 199.967L650.587 192.148L264.771 412.091L269.229 419.909Z" fill="black"/>
<path d="M265 567L291.078 611.944L316.961 566.888L265 567ZM297.876 591.076L685.758 813.902L690.242 806.098L302.359 583.272L297.876 591.076Z" fill="black"/>
<path d="M788 710L814.032 665.03L762.071 664.97L788 710ZM784 275.495L783.547 669.495L792.547 669.505L793 275.505L784 275.495Z" fill="black"/>
</svg>
