<svg width="1040" height="776" viewBox="0 0 1040 776" fill="none" xmlns="http://www.w3.org/2000/svg">
<g clip-path="url(#clip0_136_2)">
<path d="M348.63 446.497C351.028 449.931 354.372 452.731 358.327 454.618C362.281 456.504 366.709 457.412 371.169 457.25H668.842C673.306 457.414 677.739 456.508 681.699 454.621C685.659 452.734 689.008 449.933 691.411 446.497C693.702 443.031 694.917 439.062 694.925 435.014C694.933 430.966 693.734 426.993 691.456 423.52L542.841 177.35C540.463 173.838 537.14 170.94 533.189 168.929C529.237 166.919 524.788 165.864 520.264 165.864C515.74 165.864 511.29 166.919 507.339 168.929C503.388 170.94 500.065 173.838 497.687 177.35L348.645 423.52C346.353 426.987 345.141 430.959 345.141 435.008C345.141 439.057 346.338 443.03 348.63 446.497ZM361.694 430.638L511.04 184.037C512.057 182.68 513.431 181.577 515.035 180.828C516.64 180.079 518.424 179.708 520.226 179.75C522.133 179.725 524.015 180.148 525.69 180.979C527.366 181.81 528.778 183.021 529.792 184.495L678.088 430.194C679.068 431.549 679.612 433.129 679.658 434.753C679.704 436.376 679.249 437.979 678.347 439.379C677.248 440.713 675.802 441.777 674.14 442.475C672.478 443.172 670.652 443.482 668.826 443.375H371.184C369.368 443.48 367.552 443.173 365.898 442.48C364.245 441.788 362.805 440.732 361.709 439.407C360.821 438.088 360.35 436.572 360.347 435.024C360.344 433.477 360.81 431.959 361.694 430.638ZM527.708 360.125H512.5V263H527.708V360.125ZM504.896 394.812C504.896 392.068 505.788 389.386 507.459 387.104C509.13 384.822 511.505 383.044 514.284 381.994C517.063 380.943 520.121 380.669 523.071 381.204C526.021 381.739 528.731 383.061 530.858 385.001C532.985 386.942 534.433 389.414 535.02 392.105C535.607 394.797 535.306 397.587 534.155 400.122C533.004 402.657 531.054 404.824 528.553 406.349C526.052 407.874 523.112 408.687 520.104 408.687C516.073 408.68 512.209 407.216 509.359 404.615C506.509 402.015 504.904 398.49 504.896 394.812Z" fill="#7A6960"/>
</g>
<path d="M331.501 532H326.217C325.905 530.48 325.358 529.145 324.577 527.994C323.809 526.844 322.872 525.878 321.764 525.097C320.67 524.301 319.456 523.705 318.121 523.307C316.785 522.909 315.393 522.71 313.944 522.71C311.302 522.71 308.909 523.378 306.764 524.713C304.633 526.048 302.936 528.016 301.672 530.615C300.422 533.214 299.797 536.403 299.797 540.182C299.797 543.96 300.422 547.149 301.672 549.749C302.936 552.348 304.633 554.315 306.764 555.651C308.909 556.986 311.302 557.653 313.944 557.653C315.393 557.653 316.785 557.455 318.121 557.057C319.456 556.659 320.67 556.07 321.764 555.288C322.872 554.493 323.809 553.52 324.577 552.369C325.358 551.205 325.905 549.869 326.217 548.364H331.501C331.104 550.594 330.379 552.589 329.328 554.351C328.277 556.112 326.97 557.611 325.407 558.847C323.845 560.068 322.091 560.999 320.145 561.638C318.213 562.277 316.146 562.597 313.944 562.597C310.223 562.597 306.913 561.688 304.015 559.869C301.118 558.051 298.838 555.466 297.176 552.114C295.514 548.761 294.683 544.784 294.683 540.182C294.683 535.58 295.514 531.602 297.176 528.25C298.838 524.898 301.118 522.312 304.015 520.494C306.913 518.676 310.223 517.767 313.944 517.767C316.146 517.767 318.213 518.087 320.145 518.726C322.091 519.365 323.845 520.303 325.407 521.538C326.97 522.76 328.277 524.251 329.328 526.013C330.379 527.76 331.104 529.756 331.501 532ZM352.654 562.682C349.699 562.682 347.107 561.979 344.877 560.572C342.661 559.166 340.928 557.199 339.678 554.67C338.442 552.142 337.824 549.187 337.824 545.807C337.824 542.398 338.442 539.422 339.678 536.879C340.928 534.337 342.661 532.362 344.877 530.956C347.107 529.55 349.699 528.847 352.654 528.847C355.608 528.847 358.193 529.55 360.409 530.956C362.639 532.362 364.372 534.337 365.608 536.879C366.858 539.422 367.483 542.398 367.483 545.807C367.483 549.187 366.858 552.142 365.608 554.67C364.372 557.199 362.639 559.166 360.409 560.572C358.193 561.979 355.608 562.682 352.654 562.682ZM352.654 558.165C354.898 558.165 356.744 557.589 358.193 556.439C359.642 555.288 360.715 553.776 361.411 551.901C362.107 550.026 362.455 547.994 362.455 545.807C362.455 543.619 362.107 541.581 361.411 539.692C360.715 537.803 359.642 536.276 358.193 535.111C356.744 533.946 354.898 533.364 352.654 533.364C350.409 533.364 348.563 533.946 347.114 535.111C345.665 536.276 344.593 537.803 343.896 539.692C343.2 541.581 342.852 543.619 342.852 545.807C342.852 547.994 343.2 550.026 343.896 551.901C344.593 553.776 345.665 555.288 347.114 556.439C348.563 557.589 350.409 558.165 352.654 558.165ZM395.784 548.619V529.273H400.812V562H395.784V556.46H395.443C394.676 558.122 393.483 559.536 391.863 560.7C390.244 561.851 388.199 562.426 385.727 562.426C383.682 562.426 381.863 561.979 380.273 561.084C378.682 560.175 377.432 558.811 376.523 556.993C375.613 555.161 375.159 552.852 375.159 550.068V529.273H380.187V549.727C380.187 552.114 380.855 554.017 382.19 555.438C383.54 556.858 385.258 557.568 387.346 557.568C388.596 557.568 389.868 557.249 391.16 556.609C392.467 555.97 393.561 554.99 394.442 553.669C395.336 552.348 395.784 550.665 395.784 548.619ZM415.051 518.364V562H410.022V518.364H415.051ZM436.618 562.682C433.891 562.682 431.483 561.993 429.395 560.615C427.307 559.223 425.674 557.263 424.495 554.734C423.316 552.192 422.726 549.188 422.726 545.722C422.726 542.284 423.316 539.301 424.495 536.773C425.674 534.244 427.314 532.291 429.417 530.913C431.519 529.536 433.948 528.847 436.704 528.847C438.834 528.847 440.518 529.202 441.753 529.912C443.003 530.608 443.955 531.403 444.608 532.298C445.276 533.179 445.795 533.903 446.164 534.472H446.59V518.364H451.618V562H446.76V556.972H446.164C445.795 557.568 445.269 558.321 444.587 559.23C443.905 560.125 442.932 560.928 441.668 561.638C440.404 562.334 438.721 562.682 436.618 562.682ZM437.3 558.165C439.317 558.165 441.022 557.639 442.414 556.588C443.806 555.523 444.864 554.053 445.589 552.178C446.313 550.288 446.675 548.108 446.675 545.636C446.675 543.193 446.32 541.055 445.61 539.223C444.9 537.376 443.849 535.942 442.456 534.919C441.064 533.882 439.346 533.364 437.3 533.364C435.17 533.364 433.394 533.911 431.974 535.004C430.567 536.084 429.509 537.554 428.799 539.415C428.103 541.261 427.755 543.335 427.755 545.636C427.755 547.966 428.11 550.082 428.82 551.986C429.545 553.875 430.61 555.381 432.016 556.503C433.437 557.611 435.198 558.165 437.3 558.165ZM513.685 518.364V562H508.572L484.793 527.739H484.367V562H479.083V518.364H484.197L508.06 552.71H508.486V518.364H513.685ZM536.872 562.682C533.918 562.682 531.325 561.979 529.095 560.572C526.879 559.166 525.146 557.199 523.896 554.67C522.661 552.142 522.043 549.187 522.043 545.807C522.043 542.398 522.661 539.422 523.896 536.879C525.146 534.337 526.879 532.362 529.095 530.956C531.325 529.55 533.918 528.847 536.872 528.847C539.827 528.847 542.412 529.55 544.628 530.956C546.858 532.362 548.591 534.337 549.827 536.879C551.077 539.422 551.702 542.398 551.702 545.807C551.702 549.187 551.077 552.142 549.827 554.67C548.591 557.199 546.858 559.166 544.628 560.572C542.412 561.979 539.827 562.682 536.872 562.682ZM536.872 558.165C539.117 558.165 540.963 557.589 542.412 556.439C543.861 555.288 544.933 553.776 545.629 551.901C546.325 550.026 546.673 547.994 546.673 545.807C546.673 543.619 546.325 541.581 545.629 539.692C544.933 537.803 543.861 536.276 542.412 535.111C540.963 533.946 539.117 533.364 536.872 533.364C534.628 533.364 532.781 533.946 531.333 535.111C529.884 536.276 528.811 537.803 528.115 539.692C527.419 541.581 527.071 543.619 527.071 545.807C527.071 547.994 527.419 550.026 528.115 551.901C528.811 553.776 529.884 555.288 531.333 556.439C532.781 557.589 534.628 558.165 536.872 558.165ZM573.611 529.273V533.534H556.65V529.273H573.611ZM561.594 521.432H566.622V552.625C566.622 554.045 566.828 555.111 567.24 555.821C567.666 556.517 568.206 556.986 568.859 557.227C569.527 557.455 570.23 557.568 570.969 557.568C571.523 557.568 571.977 557.54 572.332 557.483C572.687 557.412 572.971 557.355 573.184 557.312L574.207 561.83C573.866 561.957 573.39 562.085 572.78 562.213C572.169 562.355 571.395 562.426 570.457 562.426C569.037 562.426 567.645 562.121 566.281 561.51C564.932 560.899 563.809 559.969 562.915 558.719C562.034 557.469 561.594 555.892 561.594 553.989V521.432ZM622.595 529.273C622.339 527.114 621.302 525.438 619.484 524.244C617.666 523.051 615.436 522.455 612.794 522.455C610.862 522.455 609.172 522.767 607.723 523.392C606.288 524.017 605.166 524.876 604.356 525.97C603.561 527.064 603.163 528.307 603.163 529.699C603.163 530.864 603.44 531.865 603.994 532.703C604.562 533.527 605.287 534.216 606.167 534.77C607.048 535.31 607.971 535.757 608.937 536.112C609.903 536.453 610.791 536.73 611.601 536.943L616.032 538.136C617.169 538.435 618.433 538.847 619.825 539.372C621.231 539.898 622.574 540.615 623.852 541.524C625.145 542.419 626.21 543.57 627.048 544.976C627.886 546.382 628.305 548.108 628.305 550.153C628.305 552.511 627.687 554.642 626.452 556.545C625.23 558.449 623.44 559.962 621.082 561.084C618.738 562.206 615.89 562.767 612.538 562.767C609.413 562.767 606.707 562.263 604.42 561.254C602.148 560.246 600.358 558.839 599.051 557.036C597.758 555.232 597.027 553.136 596.856 550.75H602.311C602.453 552.398 603.007 553.761 603.973 554.841C604.953 555.906 606.189 556.702 607.68 557.227C609.186 557.739 610.805 557.994 612.538 557.994C614.555 557.994 616.366 557.668 617.971 557.014C619.577 556.347 620.848 555.423 621.785 554.244C622.723 553.051 623.192 551.659 623.192 550.068C623.192 548.619 622.787 547.44 621.977 546.531C621.167 545.622 620.102 544.884 618.781 544.315C617.46 543.747 616.032 543.25 614.498 542.824L609.129 541.29C605.72 540.31 603.021 538.911 601.032 537.092C599.044 535.274 598.05 532.895 598.05 529.955C598.05 527.511 598.71 525.381 600.031 523.562C601.366 521.73 603.156 520.31 605.4 519.301C607.659 518.278 610.18 517.767 612.964 517.767C615.777 517.767 618.277 518.271 620.464 519.28C622.652 520.274 624.385 521.638 625.663 523.371C626.956 525.104 627.638 527.071 627.709 529.273H622.595ZM649.607 562.682C646.652 562.682 644.06 561.979 641.83 560.572C639.614 559.166 637.881 557.199 636.631 554.67C635.395 552.142 634.777 549.187 634.777 545.807C634.777 542.398 635.395 539.422 636.631 536.879C637.881 534.337 639.614 532.362 641.83 530.956C644.06 529.55 646.652 528.847 649.607 528.847C652.561 528.847 655.146 529.55 657.362 530.956C659.593 532.362 661.325 534.337 662.561 536.879C663.811 539.422 664.436 542.398 664.436 545.807C664.436 549.187 663.811 552.142 662.561 554.67C661.325 557.199 659.593 559.166 657.362 560.572C655.146 561.979 652.561 562.682 649.607 562.682ZM649.607 558.165C651.851 558.165 653.698 557.589 655.146 556.439C656.595 555.288 657.668 553.776 658.364 551.901C659.06 550.026 659.408 547.994 659.408 545.807C659.408 543.619 659.06 541.581 658.364 539.692C657.668 537.803 656.595 536.276 655.146 535.111C653.698 533.946 651.851 533.364 649.607 533.364C647.362 533.364 645.516 533.946 644.067 535.111C642.618 536.276 641.546 537.803 640.85 539.692C640.154 541.581 639.806 543.619 639.806 545.807C639.806 547.994 640.154 550.026 640.85 551.901C641.546 553.776 642.618 555.288 644.067 556.439C645.516 557.589 647.362 558.165 649.607 558.165ZM677.14 518.364V562H672.112V518.364H677.14ZM713.112 529.273L701.009 562H695.896L683.794 529.273H689.248L698.282 555.352H698.623L707.657 529.273H713.112ZM732.298 562.682C729.145 562.682 726.425 561.986 724.138 560.594C721.865 559.188 720.111 557.227 718.875 554.713C717.654 552.185 717.043 549.244 717.043 545.892C717.043 542.54 717.654 539.585 718.875 537.028C720.111 534.457 721.83 532.455 724.031 531.02C726.247 529.571 728.833 528.847 731.787 528.847C733.492 528.847 735.175 529.131 736.837 529.699C738.499 530.267 740.012 531.19 741.375 532.469C742.739 533.733 743.825 535.409 744.635 537.497C745.445 539.585 745.85 542.156 745.85 545.21V547.341H720.622V542.994H740.736C740.736 541.148 740.367 539.5 739.628 538.051C738.904 536.602 737.867 535.459 736.517 534.621C735.182 533.783 733.605 533.364 731.787 533.364C729.784 533.364 728.051 533.861 726.588 534.855C725.139 535.835 724.024 537.114 723.243 538.69C722.462 540.267 722.071 541.957 722.071 543.761V546.659C722.071 549.131 722.497 551.226 723.35 552.945C724.216 554.649 725.416 555.949 726.95 556.844C728.485 557.724 730.267 558.165 732.298 558.165C733.619 558.165 734.813 557.98 735.878 557.611C736.958 557.227 737.888 556.659 738.669 555.906C739.45 555.139 740.054 554.187 740.48 553.051L745.338 554.415C744.827 556.062 743.968 557.511 742.76 558.761C741.553 559.997 740.061 560.963 738.286 561.659C736.51 562.341 734.514 562.682 732.298 562.682Z" fill="#7A6960"/>
<defs>
<clipPath id="clip0_136_2">
<rect width="365" height="333" fill="white" transform="translate(330 152)"/>
</clipPath>
</defs>
</svg>
