<?xml version="1.0" encoding="utf-8" standalone="no"?>
<!DOCTYPE svg PUBLIC "-//W3C//DTD SVG 1.1//EN"
  "http://www.w3.org/Graphics/SVG/1.1/DTD/svg11.dtd">
<svg xmlns:xlink="http://www.w3.org/1999/xlink" width="460.8pt" height="345.6pt" viewBox="0 0 460.8 345.6" xmlns="http://www.w3.org/2000/svg" version="1.1">
 <metadata>
  <rdf:RDF xmlns:dc="http://purl.org/dc/elements/1.1/" xmlns:cc="http://creativecommons.org/ns#" xmlns:rdf="http://www.w3.org/1999/02/22-rdf-syntax-ns#">
   <cc:Work>
    <dc:type rdf:resource="http://purl.org/dc/dcmitype/StillImage"/>
    <dc:date>2024-10-03T19:26:07.547952</dc:date>
    <dc:format>image/svg+xml</dc:format>
    <dc:creator>
     <cc:Agent>
      <dc:title>Matplotlib v3.9.2, https://matplotlib.org/</dc:title>
     </cc:Agent>
    </dc:creator>
   </cc:Work>
  </rdf:RDF>
 </metadata>
 <defs>
  <style type="text/css">*{stroke-linejoin: round; stroke-linecap: butt}</style>
 </defs>
 <g id="figure_1">
  <g id="patch_1">
   <path d="M 0 345.6 
L 460.8 345.6 
L 460.8 0 
L 0 0 
L 0 345.6 
z
" style="fill: none"/>
  </g>
  <g id="axes_1">
   <g id="patch_2">
    <path d="M 376.080505 176.608615 
Q 281.709214 226.637268 191.289175 274.571261 
" clip-path="url(#p43a247a8da)" style="fill: none; stroke: #ff0000; stroke-width: 4; stroke-linecap: round"/>
    <path d="M 202.466346 274.305092 
L 191.289175 274.571261 
L 197.782543 265.469823 
z
" clip-path="url(#p43a247a8da)" style="fill: #ff0000; stroke: #ff0000; stroke-width: 4; stroke-linecap: round"/>
   </g>
   <g id="patch_3">
    <path d="M 188.241682 279.37171 
Q 260.097417 268.031809 327.535687 257.38905 
" clip-path="url(#p43a247a8da)" style="fill: none; stroke: #ff0000; stroke-width: 4; stroke-linecap: round"/>
    <path d="M 316.878508 254.00903 
L 327.535687 257.38905 
L 318.437364 263.886782 
z
" clip-path="url(#p43a247a8da)" style="fill: #ff0000; stroke: #ff0000; stroke-width: 4; stroke-linecap: round"/>
   </g>
   <g id="patch_4">
    <path d="M 333.72185 249.957858 
Q 236.160574 172.553758 142.102718 97.929236 
" clip-path="url(#p43a247a8da)" style="fill: none; stroke: #ff0000; stroke-width: 4; stroke-linecap: round"/>
    <path d="M 146.828942 108.061501 
L 142.102718 97.929236 
L 153.044265 100.227616 
z
" clip-path="url(#p43a247a8da)" style="fill: #ff0000; stroke: #ff0000; stroke-width: 4; stroke-linecap: round"/>
   </g>
   <g id="patch_5">
    <path d="M 139.462027 93.820185 
Q 252.155282 153.561794 360.897286 211.208743 
" clip-path="url(#p43a247a8da)" style="fill: none; stroke: #ff0000; stroke-width: 4; stroke-linecap: round"/>
    <path d="M 354.403919 202.107304 
L 360.897286 211.208743 
L 349.720115 210.942573 
z
" clip-path="url(#p43a247a8da)" style="fill: #ff0000; stroke: #ff0000; stroke-width: 4; stroke-linecap: round"/>
   </g>
   <g id="patch_6">
    <path d="M 372.497135 208.697423 
Q 372.497132 172.553489 372.497129 140.881692 
" clip-path="url(#p43a247a8da)" style="fill: none; stroke: #ff0000; stroke-width: 4; stroke-linecap: round"/>
    <path d="M 367.49713 150.881692 
L 372.497129 140.881692 
L 377.49713 150.881691 
z
" clip-path="url(#p43a247a8da)" style="fill: #ff0000; stroke: #ff0000; stroke-width: 4; stroke-linecap: round"/>
   </g>
   <g id="patch_7">
    <path d="M 363.838755 127.748451 
Q 236.159504 127.748449 112.95239 127.748447 
" clip-path="url(#p43a247a8da)" style="fill: none; stroke: #ff0000; stroke-width: 4; stroke-linecap: round"/>
    <path d="M 122.95239 132.748447 
L 112.95239 127.748447 
L 122.95239 122.748447 
z
" clip-path="url(#p43a247a8da)" style="fill: #ff0000; stroke: #ff0000; stroke-width: 4; stroke-linecap: round"/>
   </g>
   <g id="patch_8">
    <path d="M 108.378736 129.098691 
Q 241.775233 150.150659 370.754265 170.505484 
" clip-path="url(#p43a247a8da)" style="fill: none; stroke: #ff0000; stroke-width: 4; stroke-linecap: round"/>
    <path d="M 361.655943 164.007752 
L 370.754265 170.505484 
L 360.097086 173.885502 
z
" clip-path="url(#p43a247a8da)" style="fill: #ff0000; stroke: #ff0000; stroke-width: 4; stroke-linecap: round"/>
   </g>
   <g id="patch_9">
    <path d="M 375.174384 173.903532 
Q 241.777887 194.955499 112.798855 215.310323 
" clip-path="url(#p43a247a8da)" style="fill: none; stroke: #0000ff; stroke-width: 4; stroke-linecap: round"/>
    <path d="M 123.456034 218.690341 
L 112.798855 215.310323 
L 121.897177 208.81259 
z
" clip-path="url(#p43a247a8da)" style="fill: #0000ff; stroke: #0000ff; stroke-width: 4; stroke-linecap: round"/>
   </g>
   <g id="patch_10">
    <path d="M 108.378736 216.007884 
Q 241.775233 194.955917 370.754265 174.601093 
" clip-path="url(#p43a247a8da)" style="fill: none; stroke: #0000ff; stroke-width: 4; stroke-linecap: round"/>
    <path d="M 360.097086 171.221075 
L 370.754265 174.601093 
L 361.655943 181.098826 
z
" clip-path="url(#p43a247a8da)" style="fill: #0000ff; stroke: #0000ff; stroke-width: 4; stroke-linecap: round"/>
   </g>
   <g id="patch_11">
    <path d="M 378.150634 165.928104 
Q 338.180235 118.467603 301.090653 74.427759 
" clip-path="url(#p43a247a8da)" style="fill: none; stroke: #008000; stroke-width: 4; stroke-linecap: round"/>
    <path d="M 303.707945 85.297432 
L 301.090653 74.427759 
L 311.356766 78.855729 
z
" clip-path="url(#p43a247a8da)" style="fill: #008000; stroke: #008000; stroke-width: 4; stroke-linecap: round"/>
   </g>
   <g id="patch_12">
    <path d="M 298.212307 71.010036 
Q 338.182705 118.470537 375.272287 162.510381 
" clip-path="url(#p43a247a8da)" style="fill: none; stroke: #008000; stroke-width: 4; stroke-linecap: round"/>
    <path d="M 372.654995 151.640708 
L 375.272287 162.510381 
L 365.006174 158.082411 
z
" clip-path="url(#p43a247a8da)" style="fill: #008000; stroke: #008000; stroke-width: 4; stroke-linecap: round"/>
   </g>
   <g id="patch_13">
    <path d="M 375.500316 175.257913 
Q 257.770589 213.947742 144.289456 251.241345 
" clip-path="url(#p43a247a8da)" style="fill: none; stroke: #ffa500; stroke-width: 4; stroke-linecap: round"/>
    <path d="M 155.35063 252.86936 
L 144.289456 251.241345 
L 152.228572 243.369215 
z
" clip-path="url(#p43a247a8da)" style="fill: #ffa500; stroke: #ffa500; stroke-width: 4; stroke-linecap: round"/>
   </g>
   <g id="patch_14">
    <path d="M 140.042002 252.637197 
Q 257.771729 213.947368 371.252862 176.653765 
" clip-path="url(#p43a247a8da)" style="fill: none; stroke: #ffa500; stroke-width: 4; stroke-linecap: round"/>
    <path d="M 360.191688 175.02575 
L 371.252862 176.653765 
L 363.313746 184.525895 
z
" clip-path="url(#p43a247a8da)" style="fill: #ffa500; stroke: #ffa500; stroke-width: 4; stroke-linecap: round"/>
   </g>
   <g id="patch_15">
    <path d="M 379.721683 164.875238 
Q 362.118691 131.158266 346.585423 101.405666 
" clip-path="url(#p43a247a8da)" style="fill: none; stroke: #800080; stroke-width: 4; stroke-linecap: round"/>
    <path d="M 346.781163 112.584293 
L 346.585423 101.405666 
L 355.645768 107.95625 
z
" clip-path="url(#p43a247a8da)" style="fill: #800080; stroke: #800080; stroke-width: 4; stroke-linecap: round"/>
   </g>
   <g id="patch_16">
    <path d="M 332.282497 87.061606 
Q 288.335375 72.619146 248.636847 59.572913 
" clip-path="url(#p43a247a8da)" style="fill: none; stroke: #800080; stroke-width: 4; stroke-linecap: round"/>
    <path d="M 256.575963 67.445044 
L 248.636847 59.572913 
L 259.698021 57.944899 
z
" clip-path="url(#p43a247a8da)" style="fill: #800080; stroke: #800080; stroke-width: 4; stroke-linecap: round"/>
   </g>
   <g id="patch_17">
    <path d="M 227.608436 56.822175 
Q 207.925503 59.928436 192.660035 62.337555 
" clip-path="url(#p43a247a8da)" style="fill: none; stroke: #800080; stroke-width: 4; stroke-linecap: round"/>
    <path d="M 203.317214 65.717574 
L 192.660035 62.337555 
L 201.758357 55.839823 
z
" clip-path="url(#p43a247a8da)" style="fill: #800080; stroke: #800080; stroke-width: 4; stroke-linecap: round"/>
   </g>
   <g id="patch_18">
    <path d="M 183.694244 72.059759 
Q 236.159612 172.552513 286.555256 269.080896 
" clip-path="url(#p43a247a8da)" style="fill: none; stroke: #800080; stroke-width: 4; stroke-linecap: round"/>
    <path d="M 286.359516 257.902269 
L 286.555256 269.080896 
L 277.494911 262.530312 
z
" clip-path="url(#p43a247a8da)" style="fill: #800080; stroke: #800080; stroke-width: 4; stroke-linecap: round"/>
   </g>
   <g id="patch_19">
    <path d="M 298.212323 274.096536 
Q 338.182714 226.636038 375.272289 182.596197 
" clip-path="url(#p43a247a8da)" style="fill: none; stroke: #800080; stroke-width: 4; stroke-linecap: round"/>
    <path d="M 365.006176 187.024167 
L 375.272289 182.596197 
L 372.654997 193.46587 
z
" clip-path="url(#p43a247a8da)" style="fill: #800080; stroke: #800080; stroke-width: 4; stroke-linecap: round"/>
   </g>
   <g id="patch_20">
    <path d="M 376.945745 177.936042 
Q 309.945987 231.092943 246.449649 281.470269 
" clip-path="url(#p43a247a8da)" style="fill: none; stroke: #ff0000; stroke-width: 4; stroke-linecap: round"/>
    <path d="M 257.391196 279.171889 
L 246.449649 281.470269 
L 251.175874 271.338003 
z
" clip-path="url(#p43a247a8da)" style="fill: #ff0000; stroke: #ff0000; stroke-width: 4; stroke-linecap: round"/>
   </g>
   <g id="patch_21">
    <path d="M 242.944504 284.251213 
Q 309.944263 231.094312 373.440601 180.716986 
" clip-path="url(#p43a247a8da)" style="fill: none; stroke: #ff0000; stroke-width: 4; stroke-linecap: round"/>
    <path d="M 362.499054 183.015366 
L 373.440601 180.716986 
L 368.714376 190.849252 
z
" clip-path="url(#p43a247a8da)" style="fill: #ff0000; stroke: #ff0000; stroke-width: 4; stroke-linecap: round"/>
   </g>
   <g id="patch_22">
    <path d="M 375.070043 172.553289 
Q 236.159712 172.553294 101.721517 172.553299 
" clip-path="url(#p43a247a8da)" style="fill: none; stroke: #0000ff; stroke-width: 4; stroke-linecap: round"/>
    <path d="M 111.721517 177.553298 
L 101.721517 172.553299 
L 111.721517 167.553298 
z
" clip-path="url(#p43a247a8da)" style="fill: #0000ff; stroke: #0000ff; stroke-width: 4; stroke-linecap: round"/>
   </g>
   <g id="patch_23">
    <path d="M 97.249957 172.553299 
Q 236.160288 172.553294 370.598483 172.553289 
" clip-path="url(#p43a247a8da)" style="fill: none; stroke: #0000ff; stroke-width: 4; stroke-linecap: round"/>
    <path d="M 360.598483 167.55329 
L 370.598483 172.553289 
L 360.598483 177.55329 
z
" clip-path="url(#p43a247a8da)" style="fill: #0000ff; stroke: #0000ff; stroke-width: 4; stroke-linecap: round"/>
   </g>
   <g id="PathCollection_1">
    <defs>
     <path id="m220a4b6b92" d="M 0 15.811388 
C 4.193229 15.811388 8.215279 14.145401 11.18034 11.18034 
C 14.145401 8.215279 15.811388 4.193229 15.811388 0 
C 15.811388 -4.193229 14.145401 -8.215279 11.18034 -11.18034 
C 8.215279 -14.145401 4.193229 -15.811388 0 -15.811388 
C -4.193229 -15.811388 -8.215279 -14.145401 -11.18034 -11.18034 
C -14.145401 -8.215279 -15.811388 -4.193229 -15.811388 0 
C -15.811388 4.193229 -14.145401 8.215279 -11.18034 11.18034 
C -8.215279 14.145401 -4.193229 15.811388 0 15.811388 
z
" style="stroke: #000000"/>
    </defs>
    <g clip-path="url(#p43a247a8da)">
     <use xlink:href="#m220a4b6b92" x="383.730248" y="172.553289" style="fill: #ffff00; stroke: #000000"/>
     <use xlink:href="#m220a4b6b92" x="372.497127" y="127.748451" style="fill: #ffff00; stroke: #000000"/>
     <use xlink:href="#m220a4b6b92" x="340.507921" y="89.764749" style="fill: #ffff00; stroke: #000000"/>
     <use xlink:href="#m220a4b6b92" x="292.632692" y="64.384851" style="fill: #ffff00; stroke: #000000"/>
     <use xlink:href="#m220a4b6b92" x="236.159994" y="55.472612" style="fill: #ffff00; stroke: #000000"/>
     <use xlink:href="#m220a4b6b92" x="179.687316" y="64.384844" style="fill: #ffff00; stroke: #000000"/>
     <use xlink:href="#m220a4b6b92" x="131.812079" y="89.764749" style="fill: #ffff00; stroke: #000000"/>
     <use xlink:href="#m220a4b6b92" x="99.822873" y="127.748447" style="fill: #ffff00; stroke: #000000"/>
     <use xlink:href="#m220a4b6b92" x="88.589752" y="172.553299" style="fill: #ffff00; stroke: #000000"/>
     <use xlink:href="#m220a4b6b92" x="99.822873" y="217.358127" style="fill: #ffff00; stroke: #000000"/>
     <use xlink:href="#m220a4b6b92" x="131.81207" y="255.341821" style="fill: #ffff00; stroke: #000000"/>
     <use xlink:href="#m220a4b6b92" x="179.68729" y="280.72172" style="fill: #ffff00; stroke: #000000"/>
     <use xlink:href="#m220a4b6b92" x="236.160002" y="289.633966" style="fill: #ffff00; stroke: #000000"/>
     <use xlink:href="#m220a4b6b92" x="292.63271" y="280.72172" style="fill: #ffff00; stroke: #000000"/>
     <use xlink:href="#m220a4b6b92" x="340.507904" y="255.341842" style="fill: #ffff00; stroke: #000000"/>
     <use xlink:href="#m220a4b6b92" x="372.497136" y="217.358124" style="fill: #ffff00; stroke: #000000"/>
    </g>
   </g>
   <g id="text_1">
    <g clip-path="url(#p43a247a8da)">
     <!-- D -->
     <g transform="translate(377.955248 176.692351) scale(0.15 -0.15)">
      <defs>
       <path id="DejaVuSans-44" d="M 1259 4147 
L 1259 519 
L 2022 519 
Q 2988 519 3436 956 
Q 3884 1394 3884 2338 
Q 3884 3275 3436 3711 
Q 2988 4147 2022 4147 
L 1259 4147 
z
M 628 4666 
L 1925 4666 
Q 3281 4666 3915 4102 
Q 4550 3538 4550 2338 
Q 4550 1131 3912 565 
Q 3275 0 1925 0 
L 628 0 
L 628 4666 
z
" transform="scale(0.015625)"/>
      </defs>
      <use xlink:href="#DejaVuSans-44"/>
     </g>
    </g>
   </g>
   <g id="text_2">
    <g clip-path="url(#p43a247a8da)">
     <!-- 1 -->
     <g transform="translate(367.725252 131.887513) scale(0.15 -0.15)">
      <defs>
       <path id="DejaVuSans-31" d="M 794 531 
L 1825 531 
L 1825 4091 
L 703 3866 
L 703 4441 
L 1819 4666 
L 2450 4666 
L 2450 531 
L 3481 531 
L 3481 0 
L 794 0 
L 794 531 
z
" transform="scale(0.015625)"/>
      </defs>
      <use xlink:href="#DejaVuSans-31"/>
     </g>
    </g>
   </g>
   <g id="text_3">
    <g clip-path="url(#p43a247a8da)">
     <!-- 2 -->
     <g transform="translate(335.736046 93.903812) scale(0.15 -0.15)">
      <defs>
       <path id="DejaVuSans-32" d="M 1228 531 
L 3431 531 
L 3431 0 
L 469 0 
L 469 531 
Q 828 903 1448 1529 
Q 2069 2156 2228 2338 
Q 2531 2678 2651 2914 
Q 2772 3150 2772 3378 
Q 2772 3750 2511 3984 
Q 2250 4219 1831 4219 
Q 1534 4219 1204 4116 
Q 875 4013 500 3803 
L 500 4441 
Q 881 4594 1212 4672 
Q 1544 4750 1819 4750 
Q 2544 4750 2975 4387 
Q 3406 4025 3406 3419 
Q 3406 3131 3298 2873 
Q 3191 2616 2906 2266 
Q 2828 2175 2409 1742 
Q 1991 1309 1228 531 
z
" transform="scale(0.015625)"/>
      </defs>
      <use xlink:href="#DejaVuSans-32"/>
     </g>
    </g>
   </g>
   <g id="text_4">
    <g clip-path="url(#p43a247a8da)">
     <!-- 3 -->
     <g transform="translate(287.860817 68.523913) scale(0.15 -0.15)">
      <defs>
       <path id="DejaVuSans-33" d="M 2597 2516 
Q 3050 2419 3304 2112 
Q 3559 1806 3559 1356 
Q 3559 666 3084 287 
Q 2609 -91 1734 -91 
Q 1441 -91 1130 -33 
Q 819 25 488 141 
L 488 750 
Q 750 597 1062 519 
Q 1375 441 1716 441 
Q 2309 441 2620 675 
Q 2931 909 2931 1356 
Q 2931 1769 2642 2001 
Q 2353 2234 1838 2234 
L 1294 2234 
L 1294 2753 
L 1863 2753 
Q 2328 2753 2575 2939 
Q 2822 3125 2822 3475 
Q 2822 3834 2567 4026 
Q 2313 4219 1838 4219 
Q 1578 4219 1281 4162 
Q 984 4106 628 3988 
L 628 4550 
Q 988 4650 1302 4700 
Q 1616 4750 1894 4750 
Q 2613 4750 3031 4423 
Q 3450 4097 3450 3541 
Q 3450 3153 3228 2886 
Q 3006 2619 2597 2516 
z
" transform="scale(0.015625)"/>
      </defs>
      <use xlink:href="#DejaVuSans-33"/>
     </g>
    </g>
   </g>
   <g id="text_5">
    <g clip-path="url(#p43a247a8da)">
     <!-- 4 -->
     <g transform="translate(231.388119 59.611674) scale(0.15 -0.15)">
      <defs>
       <path id="DejaVuSans-34" d="M 2419 4116 
L 825 1625 
L 2419 1625 
L 2419 4116 
z
M 2253 4666 
L 3047 4666 
L 3047 1625 
L 3713 1625 
L 3713 1100 
L 3047 1100 
L 3047 0 
L 2419 0 
L 2419 1100 
L 313 1100 
L 313 1709 
L 2253 4666 
z
" transform="scale(0.015625)"/>
      </defs>
      <use xlink:href="#DejaVuSans-34"/>
     </g>
    </g>
   </g>
   <g id="text_6">
    <g clip-path="url(#p43a247a8da)">
     <!-- 5 -->
     <g transform="translate(174.915441 68.523906) scale(0.15 -0.15)">
      <defs>
       <path id="DejaVuSans-35" d="M 691 4666 
L 3169 4666 
L 3169 4134 
L 1269 4134 
L 1269 2991 
Q 1406 3038 1543 3061 
Q 1681 3084 1819 3084 
Q 2600 3084 3056 2656 
Q 3513 2228 3513 1497 
Q 3513 744 3044 326 
Q 2575 -91 1722 -91 
Q 1428 -91 1123 -41 
Q 819 9 494 109 
L 494 744 
Q 775 591 1075 516 
Q 1375 441 1709 441 
Q 2250 441 2565 725 
Q 2881 1009 2881 1497 
Q 2881 1984 2565 2268 
Q 2250 2553 1709 2553 
Q 1456 2553 1204 2497 
Q 953 2441 691 2322 
L 691 4666 
z
" transform="scale(0.015625)"/>
      </defs>
      <use xlink:href="#DejaVuSans-35"/>
     </g>
    </g>
   </g>
   <g id="text_7">
    <g clip-path="url(#p43a247a8da)">
     <!-- 6 -->
     <g transform="translate(127.040204 93.903812) scale(0.15 -0.15)">
      <defs>
       <path id="DejaVuSans-36" d="M 2113 2584 
Q 1688 2584 1439 2293 
Q 1191 2003 1191 1497 
Q 1191 994 1439 701 
Q 1688 409 2113 409 
Q 2538 409 2786 701 
Q 3034 994 3034 1497 
Q 3034 2003 2786 2293 
Q 2538 2584 2113 2584 
z
M 3366 4563 
L 3366 3988 
Q 3128 4100 2886 4159 
Q 2644 4219 2406 4219 
Q 1781 4219 1451 3797 
Q 1122 3375 1075 2522 
Q 1259 2794 1537 2939 
Q 1816 3084 2150 3084 
Q 2853 3084 3261 2657 
Q 3669 2231 3669 1497 
Q 3669 778 3244 343 
Q 2819 -91 2113 -91 
Q 1303 -91 875 529 
Q 447 1150 447 2328 
Q 447 3434 972 4092 
Q 1497 4750 2381 4750 
Q 2619 4750 2861 4703 
Q 3103 4656 3366 4563 
z
" transform="scale(0.015625)"/>
      </defs>
      <use xlink:href="#DejaVuSans-36"/>
     </g>
    </g>
   </g>
   <g id="text_8">
    <g clip-path="url(#p43a247a8da)">
     <!-- 7 -->
     <g transform="translate(95.050998 131.88751) scale(0.15 -0.15)">
      <defs>
       <path id="DejaVuSans-37" d="M 525 4666 
L 3525 4666 
L 3525 4397 
L 1831 0 
L 1172 0 
L 2766 4134 
L 525 4134 
L 525 4666 
z
" transform="scale(0.015625)"/>
      </defs>
      <use xlink:href="#DejaVuSans-37"/>
     </g>
    </g>
   </g>
   <g id="text_9">
    <g clip-path="url(#p43a247a8da)">
     <!-- 8 -->
     <g transform="translate(83.817877 176.692362) scale(0.15 -0.15)">
      <defs>
       <path id="DejaVuSans-38" d="M 2034 2216 
Q 1584 2216 1326 1975 
Q 1069 1734 1069 1313 
Q 1069 891 1326 650 
Q 1584 409 2034 409 
Q 2484 409 2743 651 
Q 3003 894 3003 1313 
Q 3003 1734 2745 1975 
Q 2488 2216 2034 2216 
z
M 1403 2484 
Q 997 2584 770 2862 
Q 544 3141 544 3541 
Q 544 4100 942 4425 
Q 1341 4750 2034 4750 
Q 2731 4750 3128 4425 
Q 3525 4100 3525 3541 
Q 3525 3141 3298 2862 
Q 3072 2584 2669 2484 
Q 3125 2378 3379 2068 
Q 3634 1759 3634 1313 
Q 3634 634 3220 271 
Q 2806 -91 2034 -91 
Q 1263 -91 848 271 
Q 434 634 434 1313 
Q 434 1759 690 2068 
Q 947 2378 1403 2484 
z
M 1172 3481 
Q 1172 3119 1398 2916 
Q 1625 2713 2034 2713 
Q 2441 2713 2670 2916 
Q 2900 3119 2900 3481 
Q 2900 3844 2670 4047 
Q 2441 4250 2034 4250 
Q 1625 4250 1398 4047 
Q 1172 3844 1172 3481 
z
" transform="scale(0.015625)"/>
      </defs>
      <use xlink:href="#DejaVuSans-38"/>
     </g>
    </g>
   </g>
   <g id="text_10">
    <g clip-path="url(#p43a247a8da)">
     <!-- 9 -->
     <g transform="translate(95.050998 221.49719) scale(0.15 -0.15)">
      <defs>
       <path id="DejaVuSans-39" d="M 703 97 
L 703 672 
Q 941 559 1184 500 
Q 1428 441 1663 441 
Q 2288 441 2617 861 
Q 2947 1281 2994 2138 
Q 2813 1869 2534 1725 
Q 2256 1581 1919 1581 
Q 1219 1581 811 2004 
Q 403 2428 403 3163 
Q 403 3881 828 4315 
Q 1253 4750 1959 4750 
Q 2769 4750 3195 4129 
Q 3622 3509 3622 2328 
Q 3622 1225 3098 567 
Q 2575 -91 1691 -91 
Q 1453 -91 1209 -44 
Q 966 3 703 97 
z
M 1959 2075 
Q 2384 2075 2632 2365 
Q 2881 2656 2881 3163 
Q 2881 3666 2632 3958 
Q 2384 4250 1959 4250 
Q 1534 4250 1286 3958 
Q 1038 3666 1038 3163 
Q 1038 2656 1286 2365 
Q 1534 2075 1959 2075 
z
" transform="scale(0.015625)"/>
      </defs>
      <use xlink:href="#DejaVuSans-39"/>
     </g>
    </g>
   </g>
   <g id="text_11">
    <g clip-path="url(#p43a247a8da)">
     <!-- 10 -->
     <g transform="translate(122.26832 259.480884) scale(0.15 -0.15)">
      <defs>
       <path id="DejaVuSans-30" d="M 2034 4250 
Q 1547 4250 1301 3770 
Q 1056 3291 1056 2328 
Q 1056 1369 1301 889 
Q 1547 409 2034 409 
Q 2525 409 2770 889 
Q 3016 1369 3016 2328 
Q 3016 3291 2770 3770 
Q 2525 4250 2034 4250 
z
M 2034 4750 
Q 2819 4750 3233 4129 
Q 3647 3509 3647 2328 
Q 3647 1150 3233 529 
Q 2819 -91 2034 -91 
Q 1250 -91 836 529 
Q 422 1150 422 2328 
Q 422 3509 836 4129 
Q 1250 4750 2034 4750 
z
" transform="scale(0.015625)"/>
      </defs>
      <use xlink:href="#DejaVuSans-31"/>
      <use xlink:href="#DejaVuSans-30" x="63.623047"/>
     </g>
    </g>
   </g>
   <g id="text_12">
    <g clip-path="url(#p43a247a8da)">
     <!-- 11 -->
     <g transform="translate(170.14354 284.860782) scale(0.15 -0.15)">
      <use xlink:href="#DejaVuSans-31"/>
      <use xlink:href="#DejaVuSans-31" x="63.623047"/>
     </g>
    </g>
   </g>
   <g id="text_13">
    <g clip-path="url(#p43a247a8da)">
     <!-- 12 -->
     <g transform="translate(226.616252 293.773029) scale(0.15 -0.15)">
      <use xlink:href="#DejaVuSans-31"/>
      <use xlink:href="#DejaVuSans-32" x="63.623047"/>
     </g>
    </g>
   </g>
   <g id="text_14">
    <g clip-path="url(#p43a247a8da)">
     <!-- 13 -->
     <g transform="translate(283.08896 284.860782) scale(0.15 -0.15)">
      <use xlink:href="#DejaVuSans-31"/>
      <use xlink:href="#DejaVuSans-33" x="63.623047"/>
     </g>
    </g>
   </g>
   <g id="text_15">
    <g clip-path="url(#p43a247a8da)">
     <!-- 14 -->
     <g transform="translate(330.964154 259.480905) scale(0.15 -0.15)">
      <use xlink:href="#DejaVuSans-31"/>
      <use xlink:href="#DejaVuSans-34" x="63.623047"/>
     </g>
    </g>
   </g>
   <g id="text_16">
    <g clip-path="url(#p43a247a8da)">
     <!-- 15 -->
     <g transform="translate(362.953386 221.497186) scale(0.15 -0.15)">
      <use xlink:href="#DejaVuSans-31"/>
      <use xlink:href="#DejaVuSans-35" x="63.623047"/>
     </g>
    </g>
   </g>
   <g id="text_17">
    <!-- 139 -->
    <g transform="translate(276.815119 237.736677) scale(0.12 -0.12)">
     <use xlink:href="#DejaVuSans-31"/>
     <use xlink:href="#DejaVuSans-33" x="63.623047"/>
     <use xlink:href="#DejaVuSans-39" x="127.246094"/>
    </g>
   </g>
   <g id="text_18">
    <!-- 15 -->
    <g transform="translate(250.159437 262.15655) scale(0.12 -0.12)">
     <use xlink:href="#DejaVuSans-31"/>
     <use xlink:href="#DejaVuSans-35" x="63.623047"/>
    </g>
   </g>
   <g id="text_19">
    <!-- 16 -->
    <g transform="translate(220.177157 182.487629) scale(0.12 -0.12)">
     <use xlink:href="#DejaVuSans-31"/>
     <use xlink:href="#DejaVuSans-36" x="63.623047"/>
    </g>
   </g>
   <g id="text_20">
    <!-- 25 -->
    <g transform="translate(251.078458 149.084764) scale(0.12 -0.12)">
     <use xlink:href="#DejaVuSans-32"/>
     <use xlink:href="#DejaVuSans-35" x="63.623047"/>
    </g>
   </g>
   <g id="text_21">
    <!-- 16 -->
    <g transform="translate(353.056512 175.864538) scale(0.12 -0.12)">
     <use xlink:href="#DejaVuSans-31"/>
     <use xlink:href="#DejaVuSans-36" x="63.623047"/>
    </g>
   </g>
   <g id="text_22">
    <!-- 56 -->
    <g transform="translate(228.525 140.426153) scale(0.12 -0.12)">
     <use xlink:href="#DejaVuSans-35"/>
     <use xlink:href="#DejaVuSans-36" x="63.623047"/>
    </g>
   </g>
   <g id="text_23">
    <!-- 1 -->
    <g transform="translate(240.262223 144.275638) scale(0.12 -0.12)">
     <use xlink:href="#DejaVuSans-31"/>
    </g>
   </g>
   <g id="text_24">
    <!-- 133 -->
    <g transform="translate(232.627223 207.453438) scale(0.12 -0.12)">
     <use xlink:href="#DejaVuSans-31"/>
     <use xlink:href="#DejaVuSans-33" x="63.623047"/>
     <use xlink:href="#DejaVuSans-33" x="127.246094"/>
    </g>
   </g>
   <g id="text_25">
    <!-- 248 -->
    <g transform="translate(316.912956 126.984043) scale(0.12 -0.12)">
     <use xlink:href="#DejaVuSans-32"/>
     <use xlink:href="#DejaVuSans-34" x="63.623047"/>
     <use xlink:href="#DejaVuSans-38" x="127.246094"/>
    </g>
   </g>
   <g id="text_26">
    <!-- 103 -->
    <g transform="translate(250.836474 225.912281) scale(0.12 -0.12)">
     <use xlink:href="#DejaVuSans-31"/>
     <use xlink:href="#DejaVuSans-30" x="63.623047"/>
     <use xlink:href="#DejaVuSans-33" x="127.246094"/>
    </g>
   </g>
   <g id="text_27">
    <!-- 188 -->
    <g transform="translate(339.759614 138.054656) scale(0.12 -0.12)">
     <use xlink:href="#DejaVuSans-31"/>
     <use xlink:href="#DejaVuSans-38" x="63.623047"/>
     <use xlink:href="#DejaVuSans-38" x="127.246094"/>
    </g>
   </g>
   <g id="text_28">
    <!-- 33 -->
    <g transform="translate(276.181142 84.583406) scale(0.12 -0.12)">
     <use xlink:href="#DejaVuSans-33"/>
     <use xlink:href="#DejaVuSans-33" x="63.623047"/>
    </g>
   </g>
   <g id="text_29">
    <!-- 90 -->
    <g transform="translate(202.591817 72.426458) scale(0.12 -0.12)">
     <use xlink:href="#DejaVuSans-39"/>
     <use xlink:href="#DejaVuSans-30" x="63.623047"/>
    </g>
   </g>
   <g id="text_30">
    <!-- 81 -->
    <g transform="translate(239.431984 172.280145) scale(0.12 -0.12)">
     <use xlink:href="#DejaVuSans-38"/>
     <use xlink:href="#DejaVuSans-31" x="63.623047"/>
    </g>
   </g>
   <g id="text_31">
    <!-- 270 -->
    <g transform="translate(316.912964 224.745032) scale(0.12 -0.12)">
     <use xlink:href="#DejaVuSans-32"/>
     <use xlink:href="#DejaVuSans-37" x="63.623047"/>
     <use xlink:href="#DejaVuSans-30" x="127.246094"/>
    </g>
   </g>
   <g id="text_32">
    <!-- 154 -->
    <g transform="translate(306.840459 241.027961) scale(0.12 -0.12)">
     <use xlink:href="#DejaVuSans-31"/>
     <use xlink:href="#DejaVuSans-35" x="63.623047"/>
     <use xlink:href="#DejaVuSans-34" x="127.246094"/>
    </g>
   </g>
   <g id="text_33">
    <!-- 91 -->
    <g transform="translate(228.525001 185.230998) scale(0.12 -0.12)">
     <use xlink:href="#DejaVuSans-39"/>
     <use xlink:href="#DejaVuSans-31" x="63.623047"/>
    </g>
   </g>
   <g id="text_34">
    <!-- Optimal Cost: 2032 -->
    <g transform="translate(163.431094 35.472) scale(0.15 -0.15)">
     <defs>
      <path id="DejaVuSans-4f" d="M 2522 4238 
Q 1834 4238 1429 3725 
Q 1025 3213 1025 2328 
Q 1025 1447 1429 934 
Q 1834 422 2522 422 
Q 3209 422 3611 934 
Q 4013 1447 4013 2328 
Q 4013 3213 3611 3725 
Q 3209 4238 2522 4238 
z
M 2522 4750 
Q 3503 4750 4090 4092 
Q 4678 3434 4678 2328 
Q 4678 1225 4090 567 
Q 3503 -91 2522 -91 
Q 1538 -91 948 565 
Q 359 1222 359 2328 
Q 359 3434 948 4092 
Q 1538 4750 2522 4750 
z
" transform="scale(0.015625)"/>
      <path id="DejaVuSans-70" d="M 1159 525 
L 1159 -1331 
L 581 -1331 
L 581 3500 
L 1159 3500 
L 1159 2969 
Q 1341 3281 1617 3432 
Q 1894 3584 2278 3584 
Q 2916 3584 3314 3078 
Q 3713 2572 3713 1747 
Q 3713 922 3314 415 
Q 2916 -91 2278 -91 
Q 1894 -91 1617 61 
Q 1341 213 1159 525 
z
M 3116 1747 
Q 3116 2381 2855 2742 
Q 2594 3103 2138 3103 
Q 1681 3103 1420 2742 
Q 1159 2381 1159 1747 
Q 1159 1113 1420 752 
Q 1681 391 2138 391 
Q 2594 391 2855 752 
Q 3116 1113 3116 1747 
z
" transform="scale(0.015625)"/>
      <path id="DejaVuSans-74" d="M 1172 4494 
L 1172 3500 
L 2356 3500 
L 2356 3053 
L 1172 3053 
L 1172 1153 
Q 1172 725 1289 603 
Q 1406 481 1766 481 
L 2356 481 
L 2356 0 
L 1766 0 
Q 1100 0 847 248 
Q 594 497 594 1153 
L 594 3053 
L 172 3053 
L 172 3500 
L 594 3500 
L 594 4494 
L 1172 4494 
z
" transform="scale(0.015625)"/>
      <path id="DejaVuSans-69" d="M 603 3500 
L 1178 3500 
L 1178 0 
L 603 0 
L 603 3500 
z
M 603 4863 
L 1178 4863 
L 1178 4134 
L 603 4134 
L 603 4863 
z
" transform="scale(0.015625)"/>
      <path id="DejaVuSans-6d" d="M 3328 2828 
Q 3544 3216 3844 3400 
Q 4144 3584 4550 3584 
Q 5097 3584 5394 3201 
Q 5691 2819 5691 2113 
L 5691 0 
L 5113 0 
L 5113 2094 
Q 5113 2597 4934 2840 
Q 4756 3084 4391 3084 
Q 3944 3084 3684 2787 
Q 3425 2491 3425 1978 
L 3425 0 
L 2847 0 
L 2847 2094 
Q 2847 2600 2669 2842 
Q 2491 3084 2119 3084 
Q 1678 3084 1418 2786 
Q 1159 2488 1159 1978 
L 1159 0 
L 581 0 
L 581 3500 
L 1159 3500 
L 1159 2956 
Q 1356 3278 1631 3431 
Q 1906 3584 2284 3584 
Q 2666 3584 2933 3390 
Q 3200 3197 3328 2828 
z
" transform="scale(0.015625)"/>
      <path id="DejaVuSans-61" d="M 2194 1759 
Q 1497 1759 1228 1600 
Q 959 1441 959 1056 
Q 959 750 1161 570 
Q 1363 391 1709 391 
Q 2188 391 2477 730 
Q 2766 1069 2766 1631 
L 2766 1759 
L 2194 1759 
z
M 3341 1997 
L 3341 0 
L 2766 0 
L 2766 531 
Q 2569 213 2275 61 
Q 1981 -91 1556 -91 
Q 1019 -91 701 211 
Q 384 513 384 1019 
Q 384 1609 779 1909 
Q 1175 2209 1959 2209 
L 2766 2209 
L 2766 2266 
Q 2766 2663 2505 2880 
Q 2244 3097 1772 3097 
Q 1472 3097 1187 3025 
Q 903 2953 641 2809 
L 641 3341 
Q 956 3463 1253 3523 
Q 1550 3584 1831 3584 
Q 2591 3584 2966 3190 
Q 3341 2797 3341 1997 
z
" transform="scale(0.015625)"/>
      <path id="DejaVuSans-6c" d="M 603 4863 
L 1178 4863 
L 1178 0 
L 603 0 
L 603 4863 
z
" transform="scale(0.015625)"/>
      <path id="DejaVuSans-20" transform="scale(0.015625)"/>
      <path id="DejaVuSans-43" d="M 4122 4306 
L 4122 3641 
Q 3803 3938 3442 4084 
Q 3081 4231 2675 4231 
Q 1875 4231 1450 3742 
Q 1025 3253 1025 2328 
Q 1025 1406 1450 917 
Q 1875 428 2675 428 
Q 3081 428 3442 575 
Q 3803 722 4122 1019 
L 4122 359 
Q 3791 134 3420 21 
Q 3050 -91 2638 -91 
Q 1578 -91 968 557 
Q 359 1206 359 2328 
Q 359 3453 968 4101 
Q 1578 4750 2638 4750 
Q 3056 4750 3426 4639 
Q 3797 4528 4122 4306 
z
" transform="scale(0.015625)"/>
      <path id="DejaVuSans-6f" d="M 1959 3097 
Q 1497 3097 1228 2736 
Q 959 2375 959 1747 
Q 959 1119 1226 758 
Q 1494 397 1959 397 
Q 2419 397 2687 759 
Q 2956 1122 2956 1747 
Q 2956 2369 2687 2733 
Q 2419 3097 1959 3097 
z
M 1959 3584 
Q 2709 3584 3137 3096 
Q 3566 2609 3566 1747 
Q 3566 888 3137 398 
Q 2709 -91 1959 -91 
Q 1206 -91 779 398 
Q 353 888 353 1747 
Q 353 2609 779 3096 
Q 1206 3584 1959 3584 
z
" transform="scale(0.015625)"/>
      <path id="DejaVuSans-73" d="M 2834 3397 
L 2834 2853 
Q 2591 2978 2328 3040 
Q 2066 3103 1784 3103 
Q 1356 3103 1142 2972 
Q 928 2841 928 2578 
Q 928 2378 1081 2264 
Q 1234 2150 1697 2047 
L 1894 2003 
Q 2506 1872 2764 1633 
Q 3022 1394 3022 966 
Q 3022 478 2636 193 
Q 2250 -91 1575 -91 
Q 1294 -91 989 -36 
Q 684 19 347 128 
L 347 722 
Q 666 556 975 473 
Q 1284 391 1588 391 
Q 1994 391 2212 530 
Q 2431 669 2431 922 
Q 2431 1156 2273 1281 
Q 2116 1406 1581 1522 
L 1381 1569 
Q 847 1681 609 1914 
Q 372 2147 372 2553 
Q 372 3047 722 3315 
Q 1072 3584 1716 3584 
Q 2034 3584 2315 3537 
Q 2597 3491 2834 3397 
z
" transform="scale(0.015625)"/>
      <path id="DejaVuSans-3a" d="M 750 794 
L 1409 794 
L 1409 0 
L 750 0 
L 750 794 
z
M 750 3309 
L 1409 3309 
L 1409 2516 
L 750 2516 
L 750 3309 
z
" transform="scale(0.015625)"/>
     </defs>
     <use xlink:href="#DejaVuSans-4f"/>
     <use xlink:href="#DejaVuSans-70" x="78.710938"/>
     <use xlink:href="#DejaVuSans-74" x="142.1875"/>
     <use xlink:href="#DejaVuSans-69" x="181.396484"/>
     <use xlink:href="#DejaVuSans-6d" x="209.179688"/>
     <use xlink:href="#DejaVuSans-61" x="306.591797"/>
     <use xlink:href="#DejaVuSans-6c" x="367.871094"/>
     <use xlink:href="#DejaVuSans-20" x="395.654297"/>
     <use xlink:href="#DejaVuSans-43" x="427.441406"/>
     <use xlink:href="#DejaVuSans-6f" x="497.265625"/>
     <use xlink:href="#DejaVuSans-73" x="558.447266"/>
     <use xlink:href="#DejaVuSans-74" x="610.546875"/>
     <use xlink:href="#DejaVuSans-3a" x="649.755859"/>
     <use xlink:href="#DejaVuSans-20" x="683.447266"/>
     <use xlink:href="#DejaVuSans-32" x="715.234375"/>
     <use xlink:href="#DejaVuSans-30" x="778.857422"/>
     <use xlink:href="#DejaVuSans-33" x="842.480469"/>
     <use xlink:href="#DejaVuSans-32" x="906.103516"/>
    </g>
   </g>
  </g>
 </g>
 <defs>
  <clipPath id="p43a247a8da">
   <rect x="57.6" y="41.472" width="357.12" height="266.112"/>
  </clipPath>
 </defs>
</svg>
