<?xml version="1.0" encoding="utf-8" standalone="no"?>
<!DOCTYPE svg PUBLIC "-//W3C//DTD SVG 1.1//EN"
  "http://www.w3.org/Graphics/SVG/1.1/DTD/svg11.dtd">
<svg xmlns:xlink="http://www.w3.org/1999/xlink" width="460.8pt" height="345.6pt" viewBox="0 0 460.8 345.6" xmlns="http://www.w3.org/2000/svg" version="1.1">
 <metadata>
  <rdf:RDF xmlns:dc="http://purl.org/dc/elements/1.1/" xmlns:cc="http://creativecommons.org/ns#" xmlns:rdf="http://www.w3.org/1999/02/22-rdf-syntax-ns#">
   <cc:Work>
    <dc:type rdf:resource="http://purl.org/dc/dcmitype/StillImage"/>
    <dc:date>2024-10-03T19:30:31.452726</dc:date>
    <dc:format>image/svg+xml</dc:format>
    <dc:creator>
     <cc:Agent>
      <dc:title>Matplotlib v3.9.2, https://matplotlib.org/</dc:title>
     </cc:Agent>
    </dc:creator>
   </cc:Work>
  </rdf:RDF>
 </metadata>
 <defs>
  <style type="text/css">*{stroke-linejoin: round; stroke-linecap: butt}</style>
 </defs>
 <g id="figure_1">
  <g id="patch_1">
   <path d="M 0 345.6 
L 460.8 345.6 
L 460.8 0 
L 0 0 
L 0 345.6 
z
" style="fill: none"/>
  </g>
  <g id="axes_1">
   <g id="patch_2">
    <path d="M 377.961589 168.072381 
Q 338.181105 123.554649 301.380489 82.371641 
" clip-path="url(#p335c8e5268)" style="fill: none; stroke: #ff0000; stroke-width: 4; stroke-linecap: round"/>
    <path d="M 304.315341 93.159905 
L 301.380489 82.371641 
L 311.772012 86.496718 
z
" clip-path="url(#p335c8e5268)" style="fill: #ff0000; stroke: #ff0000; stroke-width: 4; stroke-linecap: round"/>
   </g>
   <g id="patch_3">
    <path d="M 294.85858 80.949644 
Q 316.569801 162.566198 337.13135 239.860917 
" clip-path="url(#p335c8e5268)" style="fill: none; stroke: #ff0000; stroke-width: 4; stroke-linecap: round"/>
    <path d="M 339.392562 228.911629 
L 337.13135 239.860917 
L 329.728646 231.482375 
z
" clip-path="url(#p335c8e5268)" style="fill: #ff0000; stroke: #ff0000; stroke-width: 4; stroke-linecap: round"/>
   </g>
   <g id="patch_4">
    <path d="M 332.237899 255.115464 
Q 288.334628 268.713516 248.703279 280.988436 
" clip-path="url(#p335c8e5268)" style="fill: none; stroke: #ff0000; stroke-width: 4; stroke-linecap: round"/>
    <path d="M 259.734895 282.805977 
L 248.703279 280.988436 
L 256.776281 273.253668 
z
" clip-path="url(#p335c8e5268)" style="fill: #ff0000; stroke: #ff0000; stroke-width: 4; stroke-linecap: round"/>
   </g>
   <g id="patch_5">
    <path d="M 233.934218 276.5063 
Q 207.923666 178.727799 183.062788 85.271132 
" clip-path="url(#p335c8e5268)" style="fill: none; stroke: #ff0000; stroke-width: 4; stroke-linecap: round"/>
    <path d="M 180.801577 96.220421 
L 183.062788 85.271132 
L 190.465492 93.649674 
z
" clip-path="url(#p335c8e5268)" style="fill: #ff0000; stroke: #ff0000; stroke-width: 4; stroke-linecap: round"/>
   </g>
   <g id="patch_6">
    <path d="M 171.940902 76.452447 
Q 155.750009 84.541897 143.559709 90.632532 
" clip-path="url(#p335c8e5268)" style="fill: none; stroke: #ff0000; stroke-width: 4; stroke-linecap: round"/>
    <path d="M 154.740048 90.635845 
L 143.559709 90.632532 
L 150.270563 81.690248 
z
" clip-path="url(#p335c8e5268)" style="fill: #ff0000; stroke: #ff0000; stroke-width: 4; stroke-linecap: round"/>
   </g>
   <g id="patch_7">
    <path d="M 140.470587 96.501996 
Q 236.159528 96.501996 327.376332 96.501996 
" clip-path="url(#p335c8e5268)" style="fill: none; stroke: #ff0000; stroke-width: 4; stroke-linecap: round"/>
    <path d="M 317.376332 91.501996 
L 327.376332 96.501996 
L 317.376332 101.501996 
z
" clip-path="url(#p335c8e5268)" style="fill: #ff0000; stroke: #ff0000; stroke-width: 4; stroke-linecap: round"/>
   </g>
   <g id="patch_8">
    <path d="M 344.70379 104.076481 
Q 362.11968 135.516073 377.368517 163.043648 
" clip-path="url(#p335c8e5268)" style="fill: none; stroke: #ff0000; stroke-width: 4; stroke-linecap: round"/>
    <path d="M 376.896608 151.873272 
L 377.368517 163.043648 
L 368.149071 156.71895 
z
" clip-path="url(#p335c8e5268)" style="fill: #ff0000; stroke: #ff0000; stroke-width: 4; stroke-linecap: round"/>
   </g>
   <g id="patch_9">
    <path d="M 375.070043 174.528 
Q 236.159712 174.528004 101.721517 174.528009 
" clip-path="url(#p335c8e5268)" style="fill: none; stroke: #0000ff; stroke-width: 4; stroke-linecap: round"/>
    <path d="M 111.721517 179.528009 
L 101.721517 174.528009 
L 111.721517 169.528009 
z
" clip-path="url(#p335c8e5268)" style="fill: #0000ff; stroke: #0000ff; stroke-width: 4; stroke-linecap: round"/>
   </g>
   <g id="patch_10">
    <path d="M 97.15428 175.801866 
Q 230.542382 195.641531 359.50701 214.823264 
" clip-path="url(#p335c8e5268)" style="fill: none; stroke: #0000ff; stroke-width: 4; stroke-linecap: round"/>
    <path d="M 350.351411 208.406489 
L 359.50701 214.823264 
L 348.880231 218.297679 
z
" clip-path="url(#p335c8e5268)" style="fill: #0000ff; stroke: #0000ff; stroke-width: 4; stroke-linecap: round"/>
   </g>
   <g id="patch_11">
    <path d="M 364.221546 214.19219 
Q 236.15949 174.527837 112.369357 136.186617 
" clip-path="url(#p335c8e5268)" style="fill: none; stroke: #0000ff; stroke-width: 4; stroke-linecap: round"/>
    <path d="M 120.442359 143.921385 
L 112.369357 136.186617 
L 123.400972 134.369076 
z
" clip-path="url(#p335c8e5268)" style="fill: #0000ff; stroke: #0000ff; stroke-width: 4; stroke-linecap: round"/>
   </g>
   <g id="patch_12">
    <path d="M 108.3874 133.574482 
Q 241.775498 153.414154 370.740122 172.595894 
" clip-path="url(#p335c8e5268)" style="fill: none; stroke: #0000ff; stroke-width: 4; stroke-linecap: round"/>
    <path d="M 361.584523 166.179119 
L 370.740122 172.595894 
L 360.113343 176.070309 
z
" clip-path="url(#p335c8e5268)" style="fill: #0000ff; stroke: #0000ff; stroke-width: 4; stroke-linecap: round"/>
   </g>
   <g id="patch_13">
    <path d="M 375.16572 175.801857 
Q 241.777622 195.641528 112.812998 214.823267 
" clip-path="url(#p335c8e5268)" style="fill: none; stroke: #008000; stroke-width: 4; stroke-linecap: round"/>
    <path d="M 123.439778 218.297681 
L 112.812998 214.823267 
L 121.968598 208.406492 
z
" clip-path="url(#p335c8e5268)" style="fill: #008000; stroke: #008000; stroke-width: 4; stroke-linecap: round"/>
   </g>
   <g id="patch_14">
    <path d="M 105.591654 210.299616 
Q 167.989956 140.470622 227.40839 73.976352 
" clip-path="url(#p335c8e5268)" style="fill: none; stroke: #008000; stroke-width: 4; stroke-linecap: round"/>
    <path d="M 217.016868 78.10143 
L 227.40839 73.976352 
L 224.473539 84.764617 
z
" clip-path="url(#p335c8e5268)" style="fill: #008000; stroke: #008000; stroke-width: 4; stroke-linecap: round"/>
   </g>
   <g id="patch_15">
    <path d="M 238.385778 72.549699 
Q 264.396344 170.328194 289.257237 263.784855 
" clip-path="url(#p335c8e5268)" style="fill: none; stroke: #008000; stroke-width: 4; stroke-linecap: round"/>
    <path d="M 291.518446 252.835565 
L 289.257237 263.784855 
L 281.854531 255.406314 
z
" clip-path="url(#p335c8e5268)" style="fill: #008000; stroke: #008000; stroke-width: 4; stroke-linecap: round"/>
   </g>
   <g id="patch_16">
    <path d="M 283.97085 276.473878 
Q 236.158836 276.473878 192.818959 276.473878 
" clip-path="url(#p335c8e5268)" style="fill: none; stroke: #008000; stroke-width: 4; stroke-linecap: round"/>
    <path d="M 202.818959 281.473878 
L 192.818959 276.473878 
L 202.818959 271.473878 
z
" clip-path="url(#p335c8e5268)" style="fill: #008000; stroke: #008000; stroke-width: 4; stroke-linecap: round"/>
   </g>
   <g id="patch_17">
    <path d="M 186.621689 271.288692 
Q 276.092112 204.387325 361.980959 140.164076 
" clip-path="url(#p335c8e5268)" style="fill: none; stroke: #008000; stroke-width: 4; stroke-linecap: round"/>
    <path d="M 350.978086 142.148205 
L 361.980959 140.164076 
L 356.966539 150.156852 
z
" clip-path="url(#p335c8e5268)" style="fill: #008000; stroke: #008000; stroke-width: 4; stroke-linecap: round"/>
   </g>
   <g id="patch_18">
    <path d="M 364.751693 136.170476 
Q 252.154375 192.427424 143.557649 246.685558 
" clip-path="url(#p335c8e5268)" style="fill: none; stroke: #008000; stroke-width: 4; stroke-linecap: round"/>
    <path d="M 154.737989 246.688872 
L 143.557649 246.685558 
L 150.268504 237.743275 
z
" clip-path="url(#p335c8e5268)" style="fill: #008000; stroke: #008000; stroke-width: 4; stroke-linecap: round"/>
   </g>
   <g id="patch_19">
    <path d="M 140.08813 249.990673 
Q 257.773266 213.540346 371.186479 178.41315 
" clip-path="url(#p335c8e5268)" style="fill: none; stroke: #008000; stroke-width: 4; stroke-linecap: round"/>
    <path d="M 360.154864 176.595609 
L 371.186479 178.41315 
L 363.113477 186.147918 
z
" clip-path="url(#p335c8e5268)" style="fill: #008000; stroke: #008000; stroke-width: 4; stroke-linecap: round"/>
   </g>
   <g id="PathCollection_1">
    <defs>
     <path id="m9cf5f6a4d4" d="M 0 15.811388 
C 4.193229 15.811388 8.215279 14.145401 11.18034 11.18034 
C 14.145401 8.215279 15.811388 4.193229 15.811388 0 
C 15.811388 -4.193229 14.145401 -8.215279 11.18034 -11.18034 
C 8.215279 -14.145401 4.193229 -15.811388 0 -15.811388 
C -4.193229 -15.811388 -8.215279 -14.145401 -11.18034 -11.18034 
C -14.145401 -8.215279 -15.811388 -4.193229 -15.811388 0 
C -15.811388 4.193229 -14.145401 8.215279 -11.18034 11.18034 
C -8.215279 14.145401 -4.193229 15.811388 0 15.811388 
z
" style="stroke: #000000"/>
    </defs>
    <g clip-path="url(#p335c8e5268)">
     <use xlink:href="#m9cf5f6a4d4" x="383.730248" y="174.528" style="fill: #ffff00; stroke: #000000"/>
     <use xlink:href="#m9cf5f6a4d4" x="372.497127" y="132.300628" style="fill: #ffff00; stroke: #000000"/>
     <use xlink:href="#m9cf5f6a4d4" x="340.507921" y="96.501996" style="fill: #ffff00; stroke: #000000"/>
     <use xlink:href="#m9cf5f6a4d4" x="292.632692" y="72.582115" style="fill: #ffff00; stroke: #000000"/>
     <use xlink:href="#m9cf5f6a4d4" x="236.159994" y="64.182566" style="fill: #ffff00; stroke: #000000"/>
     <use xlink:href="#m9cf5f6a4d4" x="179.687316" y="72.582108" style="fill: #ffff00; stroke: #000000"/>
     <use xlink:href="#m9cf5f6a4d4" x="131.812079" y="96.501996" style="fill: #ffff00; stroke: #000000"/>
     <use xlink:href="#m9cf5f6a4d4" x="99.822873" y="132.300624" style="fill: #ffff00; stroke: #000000"/>
     <use xlink:href="#m9cf5f6a4d4" x="88.589752" y="174.528009" style="fill: #ffff00; stroke: #000000"/>
     <use xlink:href="#m9cf5f6a4d4" x="99.822873" y="216.755372" style="fill: #ffff00; stroke: #000000"/>
     <use xlink:href="#m9cf5f6a4d4" x="131.81207" y="252.553996" style="fill: #ffff00; stroke: #000000"/>
     <use xlink:href="#m9cf5f6a4d4" x="179.68729" y="276.473878" style="fill: #ffff00; stroke: #000000"/>
     <use xlink:href="#m9cf5f6a4d4" x="236.160002" y="284.873434" style="fill: #ffff00; stroke: #000000"/>
     <use xlink:href="#m9cf5f6a4d4" x="292.63271" y="276.473878" style="fill: #ffff00; stroke: #000000"/>
     <use xlink:href="#m9cf5f6a4d4" x="340.507904" y="252.554016" style="fill: #ffff00; stroke: #000000"/>
     <use xlink:href="#m9cf5f6a4d4" x="372.497136" y="216.755368" style="fill: #ffff00; stroke: #000000"/>
    </g>
   </g>
   <g id="text_1">
    <g clip-path="url(#p335c8e5268)">
     <!-- D -->
     <g transform="translate(377.955248 178.667062) scale(0.15 -0.15)">
      <defs>
       <path id="DejaVuSans-44" d="M 1259 4147 
L 1259 519 
L 2022 519 
Q 2988 519 3436 956 
Q 3884 1394 3884 2338 
Q 3884 3275 3436 3711 
Q 2988 4147 2022 4147 
L 1259 4147 
z
M 628 4666 
L 1925 4666 
Q 3281 4666 3915 4102 
Q 4550 3538 4550 2338 
Q 4550 1131 3912 565 
Q 3275 0 1925 0 
L 628 0 
L 628 4666 
z
" transform="scale(0.015625)"/>
      </defs>
      <use xlink:href="#DejaVuSans-44"/>
     </g>
    </g>
   </g>
   <g id="text_2">
    <g clip-path="url(#p335c8e5268)">
     <!-- 1 -->
     <g transform="translate(367.725252 136.43969) scale(0.15 -0.15)">
      <defs>
       <path id="DejaVuSans-31" d="M 794 531 
L 1825 531 
L 1825 4091 
L 703 3866 
L 703 4441 
L 1819 4666 
L 2450 4666 
L 2450 531 
L 3481 531 
L 3481 0 
L 794 0 
L 794 531 
z
" transform="scale(0.015625)"/>
      </defs>
      <use xlink:href="#DejaVuSans-31"/>
     </g>
    </g>
   </g>
   <g id="text_3">
    <g clip-path="url(#p335c8e5268)">
     <!-- 2 -->
     <g transform="translate(335.736046 100.641059) scale(0.15 -0.15)">
      <defs>
       <path id="DejaVuSans-32" d="M 1228 531 
L 3431 531 
L 3431 0 
L 469 0 
L 469 531 
Q 828 903 1448 1529 
Q 2069 2156 2228 2338 
Q 2531 2678 2651 2914 
Q 2772 3150 2772 3378 
Q 2772 3750 2511 3984 
Q 2250 4219 1831 4219 
Q 1534 4219 1204 4116 
Q 875 4013 500 3803 
L 500 4441 
Q 881 4594 1212 4672 
Q 1544 4750 1819 4750 
Q 2544 4750 2975 4387 
Q 3406 4025 3406 3419 
Q 3406 3131 3298 2873 
Q 3191 2616 2906 2266 
Q 2828 2175 2409 1742 
Q 1991 1309 1228 531 
z
" transform="scale(0.015625)"/>
      </defs>
      <use xlink:href="#DejaVuSans-32"/>
     </g>
    </g>
   </g>
   <g id="text_4">
    <g clip-path="url(#p335c8e5268)">
     <!-- 3 -->
     <g transform="translate(287.860817 76.721177) scale(0.15 -0.15)">
      <defs>
       <path id="DejaVuSans-33" d="M 2597 2516 
Q 3050 2419 3304 2112 
Q 3559 1806 3559 1356 
Q 3559 666 3084 287 
Q 2609 -91 1734 -91 
Q 1441 -91 1130 -33 
Q 819 25 488 141 
L 488 750 
Q 750 597 1062 519 
Q 1375 441 1716 441 
Q 2309 441 2620 675 
Q 2931 909 2931 1356 
Q 2931 1769 2642 2001 
Q 2353 2234 1838 2234 
L 1294 2234 
L 1294 2753 
L 1863 2753 
Q 2328 2753 2575 2939 
Q 2822 3125 2822 3475 
Q 2822 3834 2567 4026 
Q 2313 4219 1838 4219 
Q 1578 4219 1281 4162 
Q 984 4106 628 3988 
L 628 4550 
Q 988 4650 1302 4700 
Q 1616 4750 1894 4750 
Q 2613 4750 3031 4423 
Q 3450 4097 3450 3541 
Q 3450 3153 3228 2886 
Q 3006 2619 2597 2516 
z
" transform="scale(0.015625)"/>
      </defs>
      <use xlink:href="#DejaVuSans-33"/>
     </g>
    </g>
   </g>
   <g id="text_5">
    <g clip-path="url(#p335c8e5268)">
     <!-- 4 -->
     <g transform="translate(231.388119 68.321628) scale(0.15 -0.15)">
      <defs>
       <path id="DejaVuSans-34" d="M 2419 4116 
L 825 1625 
L 2419 1625 
L 2419 4116 
z
M 2253 4666 
L 3047 4666 
L 3047 1625 
L 3713 1625 
L 3713 1100 
L 3047 1100 
L 3047 0 
L 2419 0 
L 2419 1100 
L 313 1100 
L 313 1709 
L 2253 4666 
z
" transform="scale(0.015625)"/>
      </defs>
      <use xlink:href="#DejaVuSans-34"/>
     </g>
    </g>
   </g>
   <g id="text_6">
    <g clip-path="url(#p335c8e5268)">
     <!-- 5 -->
     <g transform="translate(174.915441 76.721171) scale(0.15 -0.15)">
      <defs>
       <path id="DejaVuSans-35" d="M 691 4666 
L 3169 4666 
L 3169 4134 
L 1269 4134 
L 1269 2991 
Q 1406 3038 1543 3061 
Q 1681 3084 1819 3084 
Q 2600 3084 3056 2656 
Q 3513 2228 3513 1497 
Q 3513 744 3044 326 
Q 2575 -91 1722 -91 
Q 1428 -91 1123 -41 
Q 819 9 494 109 
L 494 744 
Q 775 591 1075 516 
Q 1375 441 1709 441 
Q 2250 441 2565 725 
Q 2881 1009 2881 1497 
Q 2881 1984 2565 2268 
Q 2250 2553 1709 2553 
Q 1456 2553 1204 2497 
Q 953 2441 691 2322 
L 691 4666 
z
" transform="scale(0.015625)"/>
      </defs>
      <use xlink:href="#DejaVuSans-35"/>
     </g>
    </g>
   </g>
   <g id="text_7">
    <g clip-path="url(#p335c8e5268)">
     <!-- 6 -->
     <g transform="translate(127.040204 100.641059) scale(0.15 -0.15)">
      <defs>
       <path id="DejaVuSans-36" d="M 2113 2584 
Q 1688 2584 1439 2293 
Q 1191 2003 1191 1497 
Q 1191 994 1439 701 
Q 1688 409 2113 409 
Q 2538 409 2786 701 
Q 3034 994 3034 1497 
Q 3034 2003 2786 2293 
Q 2538 2584 2113 2584 
z
M 3366 4563 
L 3366 3988 
Q 3128 4100 2886 4159 
Q 2644 4219 2406 4219 
Q 1781 4219 1451 3797 
Q 1122 3375 1075 2522 
Q 1259 2794 1537 2939 
Q 1816 3084 2150 3084 
Q 2853 3084 3261 2657 
Q 3669 2231 3669 1497 
Q 3669 778 3244 343 
Q 2819 -91 2113 -91 
Q 1303 -91 875 529 
Q 447 1150 447 2328 
Q 447 3434 972 4092 
Q 1497 4750 2381 4750 
Q 2619 4750 2861 4703 
Q 3103 4656 3366 4563 
z
" transform="scale(0.015625)"/>
      </defs>
      <use xlink:href="#DejaVuSans-36"/>
     </g>
    </g>
   </g>
   <g id="text_8">
    <g clip-path="url(#p335c8e5268)">
     <!-- 7 -->
     <g transform="translate(95.050998 136.439687) scale(0.15 -0.15)">
      <defs>
       <path id="DejaVuSans-37" d="M 525 4666 
L 3525 4666 
L 3525 4397 
L 1831 0 
L 1172 0 
L 2766 4134 
L 525 4134 
L 525 4666 
z
" transform="scale(0.015625)"/>
      </defs>
      <use xlink:href="#DejaVuSans-37"/>
     </g>
    </g>
   </g>
   <g id="text_9">
    <g clip-path="url(#p335c8e5268)">
     <!-- 8 -->
     <g transform="translate(83.817877 178.667072) scale(0.15 -0.15)">
      <defs>
       <path id="DejaVuSans-38" d="M 2034 2216 
Q 1584 2216 1326 1975 
Q 1069 1734 1069 1313 
Q 1069 891 1326 650 
Q 1584 409 2034 409 
Q 2484 409 2743 651 
Q 3003 894 3003 1313 
Q 3003 1734 2745 1975 
Q 2488 2216 2034 2216 
z
M 1403 2484 
Q 997 2584 770 2862 
Q 544 3141 544 3541 
Q 544 4100 942 4425 
Q 1341 4750 2034 4750 
Q 2731 4750 3128 4425 
Q 3525 4100 3525 3541 
Q 3525 3141 3298 2862 
Q 3072 2584 2669 2484 
Q 3125 2378 3379 2068 
Q 3634 1759 3634 1313 
Q 3634 634 3220 271 
Q 2806 -91 2034 -91 
Q 1263 -91 848 271 
Q 434 634 434 1313 
Q 434 1759 690 2068 
Q 947 2378 1403 2484 
z
M 1172 3481 
Q 1172 3119 1398 2916 
Q 1625 2713 2034 2713 
Q 2441 2713 2670 2916 
Q 2900 3119 2900 3481 
Q 2900 3844 2670 4047 
Q 2441 4250 2034 4250 
Q 1625 4250 1398 4047 
Q 1172 3844 1172 3481 
z
" transform="scale(0.015625)"/>
      </defs>
      <use xlink:href="#DejaVuSans-38"/>
     </g>
    </g>
   </g>
   <g id="text_10">
    <g clip-path="url(#p335c8e5268)">
     <!-- 9 -->
     <g transform="translate(95.050998 220.894434) scale(0.15 -0.15)">
      <defs>
       <path id="DejaVuSans-39" d="M 703 97 
L 703 672 
Q 941 559 1184 500 
Q 1428 441 1663 441 
Q 2288 441 2617 861 
Q 2947 1281 2994 2138 
Q 2813 1869 2534 1725 
Q 2256 1581 1919 1581 
Q 1219 1581 811 2004 
Q 403 2428 403 3163 
Q 403 3881 828 4315 
Q 1253 4750 1959 4750 
Q 2769 4750 3195 4129 
Q 3622 3509 3622 2328 
Q 3622 1225 3098 567 
Q 2575 -91 1691 -91 
Q 1453 -91 1209 -44 
Q 966 3 703 97 
z
M 1959 2075 
Q 2384 2075 2632 2365 
Q 2881 2656 2881 3163 
Q 2881 3666 2632 3958 
Q 2384 4250 1959 4250 
Q 1534 4250 1286 3958 
Q 1038 3666 1038 3163 
Q 1038 2656 1286 2365 
Q 1534 2075 1959 2075 
z
" transform="scale(0.015625)"/>
      </defs>
      <use xlink:href="#DejaVuSans-39"/>
     </g>
    </g>
   </g>
   <g id="text_11">
    <g clip-path="url(#p335c8e5268)">
     <!-- 10 -->
     <g transform="translate(122.26832 256.693059) scale(0.15 -0.15)">
      <defs>
       <path id="DejaVuSans-30" d="M 2034 4250 
Q 1547 4250 1301 3770 
Q 1056 3291 1056 2328 
Q 1056 1369 1301 889 
Q 1547 409 2034 409 
Q 2525 409 2770 889 
Q 3016 1369 3016 2328 
Q 3016 3291 2770 3770 
Q 2525 4250 2034 4250 
z
M 2034 4750 
Q 2819 4750 3233 4129 
Q 3647 3509 3647 2328 
Q 3647 1150 3233 529 
Q 2819 -91 2034 -91 
Q 1250 -91 836 529 
Q 422 1150 422 2328 
Q 422 3509 836 4129 
Q 1250 4750 2034 4750 
z
" transform="scale(0.015625)"/>
      </defs>
      <use xlink:href="#DejaVuSans-31"/>
      <use xlink:href="#DejaVuSans-30" x="63.623047"/>
     </g>
    </g>
   </g>
   <g id="text_12">
    <g clip-path="url(#p335c8e5268)">
     <!-- 11 -->
     <g transform="translate(170.14354 280.61294) scale(0.15 -0.15)">
      <use xlink:href="#DejaVuSans-31"/>
      <use xlink:href="#DejaVuSans-31" x="63.623047"/>
     </g>
    </g>
   </g>
   <g id="text_13">
    <g clip-path="url(#p335c8e5268)">
     <!-- 12 -->
     <g transform="translate(226.616252 289.012496) scale(0.15 -0.15)">
      <use xlink:href="#DejaVuSans-31"/>
      <use xlink:href="#DejaVuSans-32" x="63.623047"/>
     </g>
    </g>
   </g>
   <g id="text_14">
    <g clip-path="url(#p335c8e5268)">
     <!-- 13 -->
     <g transform="translate(283.08896 280.61294) scale(0.15 -0.15)">
      <use xlink:href="#DejaVuSans-31"/>
      <use xlink:href="#DejaVuSans-33" x="63.623047"/>
     </g>
    </g>
   </g>
   <g id="text_15">
    <g clip-path="url(#p335c8e5268)">
     <!-- 14 -->
     <g transform="translate(330.964154 256.693079) scale(0.15 -0.15)">
      <use xlink:href="#DejaVuSans-31"/>
      <use xlink:href="#DejaVuSans-34" x="63.623047"/>
     </g>
    </g>
   </g>
   <g id="text_16">
    <g clip-path="url(#p335c8e5268)">
     <!-- 15 -->
     <g transform="translate(362.953386 220.894431) scale(0.15 -0.15)">
      <use xlink:href="#DejaVuSans-31"/>
      <use xlink:href="#DejaVuSans-35" x="63.623047"/>
     </g>
    </g>
   </g>
   <g id="text_17">
    <!-- 188 -->
    <g transform="translate(316.912956 131.770678) scale(0.12 -0.12)">
     <use xlink:href="#DejaVuSans-31"/>
     <use xlink:href="#DejaVuSans-38" x="63.623047"/>
     <use xlink:href="#DejaVuSans-38" x="127.246094"/>
    </g>
   </g>
   <g id="text_18">
    <!-- 174 -->
    <g transform="translate(316.696577 164.15713) scale(0.12 -0.12)">
     <use xlink:href="#DejaVuSans-31"/>
     <use xlink:href="#DejaVuSans-37" x="63.623047"/>
     <use xlink:href="#DejaVuSans-34" x="127.246094"/>
    </g>
   </g>
   <g id="text_19">
    <!-- 85 -->
    <g transform="translate(285.216767 280.180646) scale(0.12 -0.12)">
     <use xlink:href="#DejaVuSans-38"/>
     <use xlink:href="#DejaVuSans-35" x="63.623047"/>
    </g>
   </g>
   <g id="text_20">
    <!-- 76 -->
    <g transform="translate(188.709881 183.761207) scale(0.12 -0.12)">
     <use xlink:href="#DejaVuSans-37"/>
     <use xlink:href="#DejaVuSans-36" x="63.623047"/>
    </g>
   </g>
   <g id="text_21">
    <!-- 209 -->
    <g transform="translate(150.856049 95.193212) scale(0.12 -0.12)">
     <use xlink:href="#DejaVuSans-32"/>
     <use xlink:href="#DejaVuSans-30" x="63.623047"/>
     <use xlink:href="#DejaVuSans-39" x="127.246094"/>
    </g>
   </g>
   <g id="text_22">
    <!-- 10 -->
    <g transform="translate(228.525 90.985612) scale(0.12 -0.12)">
     <use xlink:href="#DejaVuSans-31"/>
     <use xlink:href="#DejaVuSans-30" x="63.623047"/>
    </g>
   </g>
   <g id="text_23">
    <!-- 5 -->
    <g transform="translate(369.208555 135.448058) scale(0.12 -0.12)">
     <use xlink:href="#DejaVuSans-35"/>
    </g>
   </g>
   <g id="text_24">
    <!-- 131 -->
    <g transform="translate(224.707501 186.666889) scale(0.12 -0.12)">
     <use xlink:href="#DejaVuSans-31"/>
     <use xlink:href="#DejaVuSans-33" x="63.623047"/>
     <use xlink:href="#DejaVuSans-31" x="127.246094"/>
    </g>
   </g>
   <g id="text_25">
    <!-- 36 -->
    <g transform="translate(225.211606 190.294925) scale(0.12 -0.12)">
     <use xlink:href="#DejaVuSans-33"/>
     <use xlink:href="#DejaVuSans-36" x="63.623047"/>
    </g>
   </g>
   <g id="text_26">
    <!-- 59 -->
    <g transform="translate(224.007189 185.994917) scale(0.12 -0.12)">
     <use xlink:href="#DejaVuSans-35"/>
     <use xlink:href="#DejaVuSans-39" x="63.623047"/>
    </g>
   </g>
   <g id="text_27">
    <!-- 15 -->
    <g transform="translate(236.444723 148.067548) scale(0.12 -0.12)">
     <use xlink:href="#DejaVuSans-31"/>
     <use xlink:href="#DejaVuSans-35" x="63.623047"/>
    </g>
   </g>
   <g id="text_28">
    <!-- 75 -->
    <g transform="translate(236.444723 207.61095) scale(0.12 -0.12)">
     <use xlink:href="#DejaVuSans-37"/>
     <use xlink:href="#DejaVuSans-35" x="63.623047"/>
    </g>
   </g>
   <g id="text_29">
    <!-- 59 -->
    <g transform="translate(150.540419 138.875848) scale(0.12 -0.12)">
     <use xlink:href="#DejaVuSans-35"/>
     <use xlink:href="#DejaVuSans-39" x="63.623047"/>
    </g>
   </g>
   <g id="text_30">
    <!-- 61 -->
    <g transform="translate(268.34013 171.917285) scale(0.12 -0.12)">
     <use xlink:href="#DejaVuSans-36"/>
     <use xlink:href="#DejaVuSans-31" x="63.623047"/>
    </g>
   </g>
   <g id="text_31">
    <!-- 57 -->
    <g transform="translate(228.525 288.612763) scale(0.12 -0.12)">
     <use xlink:href="#DejaVuSans-35"/>
     <use xlink:href="#DejaVuSans-37" x="63.623047"/>
    </g>
   </g>
   <g id="text_32">
    <!-- 78 -->
    <g transform="translate(260.109375 201.456422) scale(0.12 -0.12)">
     <use xlink:href="#DejaVuSans-37"/>
     <use xlink:href="#DejaVuSans-38" x="63.623047"/>
    </g>
   </g>
   <g id="text_33">
    <!-- 42 -->
    <g transform="translate(251.078449 203.078472) scale(0.12 -0.12)">
     <use xlink:href="#DejaVuSans-34"/>
     <use xlink:href="#DejaVuSans-32" x="63.623047"/>
    </g>
   </g>
   <g id="text_34">
    <!-- 32 -->
    <g transform="translate(245.618344 208.696577) scale(0.12 -0.12)">
     <use xlink:href="#DejaVuSans-33"/>
     <use xlink:href="#DejaVuSans-32" x="63.623047"/>
    </g>
   </g>
   <g id="text_35">
    <!-- Optimal Cost: 1392 -->
    <g transform="translate(163.431094 35.472) scale(0.15 -0.15)">
     <defs>
      <path id="DejaVuSans-4f" d="M 2522 4238 
Q 1834 4238 1429 3725 
Q 1025 3213 1025 2328 
Q 1025 1447 1429 934 
Q 1834 422 2522 422 
Q 3209 422 3611 934 
Q 4013 1447 4013 2328 
Q 4013 3213 3611 3725 
Q 3209 4238 2522 4238 
z
M 2522 4750 
Q 3503 4750 4090 4092 
Q 4678 3434 4678 2328 
Q 4678 1225 4090 567 
Q 3503 -91 2522 -91 
Q 1538 -91 948 565 
Q 359 1222 359 2328 
Q 359 3434 948 4092 
Q 1538 4750 2522 4750 
z
" transform="scale(0.015625)"/>
      <path id="DejaVuSans-70" d="M 1159 525 
L 1159 -1331 
L 581 -1331 
L 581 3500 
L 1159 3500 
L 1159 2969 
Q 1341 3281 1617 3432 
Q 1894 3584 2278 3584 
Q 2916 3584 3314 3078 
Q 3713 2572 3713 1747 
Q 3713 922 3314 415 
Q 2916 -91 2278 -91 
Q 1894 -91 1617 61 
Q 1341 213 1159 525 
z
M 3116 1747 
Q 3116 2381 2855 2742 
Q 2594 3103 2138 3103 
Q 1681 3103 1420 2742 
Q 1159 2381 1159 1747 
Q 1159 1113 1420 752 
Q 1681 391 2138 391 
Q 2594 391 2855 752 
Q 3116 1113 3116 1747 
z
" transform="scale(0.015625)"/>
      <path id="DejaVuSans-74" d="M 1172 4494 
L 1172 3500 
L 2356 3500 
L 2356 3053 
L 1172 3053 
L 1172 1153 
Q 1172 725 1289 603 
Q 1406 481 1766 481 
L 2356 481 
L 2356 0 
L 1766 0 
Q 1100 0 847 248 
Q 594 497 594 1153 
L 594 3053 
L 172 3053 
L 172 3500 
L 594 3500 
L 594 4494 
L 1172 4494 
z
" transform="scale(0.015625)"/>
      <path id="DejaVuSans-69" d="M 603 3500 
L 1178 3500 
L 1178 0 
L 603 0 
L 603 3500 
z
M 603 4863 
L 1178 4863 
L 1178 4134 
L 603 4134 
L 603 4863 
z
" transform="scale(0.015625)"/>
      <path id="DejaVuSans-6d" d="M 3328 2828 
Q 3544 3216 3844 3400 
Q 4144 3584 4550 3584 
Q 5097 3584 5394 3201 
Q 5691 2819 5691 2113 
L 5691 0 
L 5113 0 
L 5113 2094 
Q 5113 2597 4934 2840 
Q 4756 3084 4391 3084 
Q 3944 3084 3684 2787 
Q 3425 2491 3425 1978 
L 3425 0 
L 2847 0 
L 2847 2094 
Q 2847 2600 2669 2842 
Q 2491 3084 2119 3084 
Q 1678 3084 1418 2786 
Q 1159 2488 1159 1978 
L 1159 0 
L 581 0 
L 581 3500 
L 1159 3500 
L 1159 2956 
Q 1356 3278 1631 3431 
Q 1906 3584 2284 3584 
Q 2666 3584 2933 3390 
Q 3200 3197 3328 2828 
z
" transform="scale(0.015625)"/>
      <path id="DejaVuSans-61" d="M 2194 1759 
Q 1497 1759 1228 1600 
Q 959 1441 959 1056 
Q 959 750 1161 570 
Q 1363 391 1709 391 
Q 2188 391 2477 730 
Q 2766 1069 2766 1631 
L 2766 1759 
L 2194 1759 
z
M 3341 1997 
L 3341 0 
L 2766 0 
L 2766 531 
Q 2569 213 2275 61 
Q 1981 -91 1556 -91 
Q 1019 -91 701 211 
Q 384 513 384 1019 
Q 384 1609 779 1909 
Q 1175 2209 1959 2209 
L 2766 2209 
L 2766 2266 
Q 2766 2663 2505 2880 
Q 2244 3097 1772 3097 
Q 1472 3097 1187 3025 
Q 903 2953 641 2809 
L 641 3341 
Q 956 3463 1253 3523 
Q 1550 3584 1831 3584 
Q 2591 3584 2966 3190 
Q 3341 2797 3341 1997 
z
" transform="scale(0.015625)"/>
      <path id="DejaVuSans-6c" d="M 603 4863 
L 1178 4863 
L 1178 0 
L 603 0 
L 603 4863 
z
" transform="scale(0.015625)"/>
      <path id="DejaVuSans-20" transform="scale(0.015625)"/>
      <path id="DejaVuSans-43" d="M 4122 4306 
L 4122 3641 
Q 3803 3938 3442 4084 
Q 3081 4231 2675 4231 
Q 1875 4231 1450 3742 
Q 1025 3253 1025 2328 
Q 1025 1406 1450 917 
Q 1875 428 2675 428 
Q 3081 428 3442 575 
Q 3803 722 4122 1019 
L 4122 359 
Q 3791 134 3420 21 
Q 3050 -91 2638 -91 
Q 1578 -91 968 557 
Q 359 1206 359 2328 
Q 359 3453 968 4101 
Q 1578 4750 2638 4750 
Q 3056 4750 3426 4639 
Q 3797 4528 4122 4306 
z
" transform="scale(0.015625)"/>
      <path id="DejaVuSans-6f" d="M 1959 3097 
Q 1497 3097 1228 2736 
Q 959 2375 959 1747 
Q 959 1119 1226 758 
Q 1494 397 1959 397 
Q 2419 397 2687 759 
Q 2956 1122 2956 1747 
Q 2956 2369 2687 2733 
Q 2419 3097 1959 3097 
z
M 1959 3584 
Q 2709 3584 3137 3096 
Q 3566 2609 3566 1747 
Q 3566 888 3137 398 
Q 2709 -91 1959 -91 
Q 1206 -91 779 398 
Q 353 888 353 1747 
Q 353 2609 779 3096 
Q 1206 3584 1959 3584 
z
" transform="scale(0.015625)"/>
      <path id="DejaVuSans-73" d="M 2834 3397 
L 2834 2853 
Q 2591 2978 2328 3040 
Q 2066 3103 1784 3103 
Q 1356 3103 1142 2972 
Q 928 2841 928 2578 
Q 928 2378 1081 2264 
Q 1234 2150 1697 2047 
L 1894 2003 
Q 2506 1872 2764 1633 
Q 3022 1394 3022 966 
Q 3022 478 2636 193 
Q 2250 -91 1575 -91 
Q 1294 -91 989 -36 
Q 684 19 347 128 
L 347 722 
Q 666 556 975 473 
Q 1284 391 1588 391 
Q 1994 391 2212 530 
Q 2431 669 2431 922 
Q 2431 1156 2273 1281 
Q 2116 1406 1581 1522 
L 1381 1569 
Q 847 1681 609 1914 
Q 372 2147 372 2553 
Q 372 3047 722 3315 
Q 1072 3584 1716 3584 
Q 2034 3584 2315 3537 
Q 2597 3491 2834 3397 
z
" transform="scale(0.015625)"/>
      <path id="DejaVuSans-3a" d="M 750 794 
L 1409 794 
L 1409 0 
L 750 0 
L 750 794 
z
M 750 3309 
L 1409 3309 
L 1409 2516 
L 750 2516 
L 750 3309 
z
" transform="scale(0.015625)"/>
     </defs>
     <use xlink:href="#DejaVuSans-4f"/>
     <use xlink:href="#DejaVuSans-70" x="78.710938"/>
     <use xlink:href="#DejaVuSans-74" x="142.1875"/>
     <use xlink:href="#DejaVuSans-69" x="181.396484"/>
     <use xlink:href="#DejaVuSans-6d" x="209.179688"/>
     <use xlink:href="#DejaVuSans-61" x="306.591797"/>
     <use xlink:href="#DejaVuSans-6c" x="367.871094"/>
     <use xlink:href="#DejaVuSans-20" x="395.654297"/>
     <use xlink:href="#DejaVuSans-43" x="427.441406"/>
     <use xlink:href="#DejaVuSans-6f" x="497.265625"/>
     <use xlink:href="#DejaVuSans-73" x="558.447266"/>
     <use xlink:href="#DejaVuSans-74" x="610.546875"/>
     <use xlink:href="#DejaVuSans-3a" x="649.755859"/>
     <use xlink:href="#DejaVuSans-20" x="683.447266"/>
     <use xlink:href="#DejaVuSans-31" x="715.234375"/>
     <use xlink:href="#DejaVuSans-33" x="778.857422"/>
     <use xlink:href="#DejaVuSans-39" x="842.480469"/>
     <use xlink:href="#DejaVuSans-32" x="906.103516"/>
    </g>
   </g>
  </g>
 </g>
 <defs>
  <clipPath id="p335c8e5268">
   <rect x="57.6" y="41.472" width="357.12" height="266.112"/>
  </clipPath>
 </defs>
</svg>
