<svg width="1040" height="982" viewBox="0 0 1040 982" fill="none" xmlns="http://www.w3.org/2000/svg">
<line y1="-6" x2="280.283" y2="-6" transform="matrix(0.450865 0.892592 -0.902409 0.43088 506.722 246.109)" stroke="#80756F" stroke-width="12"/>
<line y1="-6" x2="209.631" y2="-6" transform="matrix(0.947913 0.318529 -0.334951 0.942235 554.34 228.302)" stroke="#80756F" stroke-width="12"/>
<line y1="-6" x2="127.677" y2="-6" transform="matrix(0.839145 -0.543908 0.565516 0.824737 525.952 655.653)" stroke="#80756F" stroke-width="12"/>
<g clip-path="url(#clip0_82_169)">
<path d="M179.546 574.52C166.544 574.52 156 584.79 156 597.384V807.68C156 820.274 167.838 831.8 180.84 831.8H214.736C218.682 854.601 239.059 872 263.64 872C288.221 872 308.598 854.601 312.544 831.8H389.134C402.104 831.8 412.68 821.53 412.68 808.936V597.886C412.68 585.01 402.233 574.52 389.392 574.52H179.546ZM429.24 630.8V831.8C433.218 854.57 454.339 872 478.92 872C503.501 872 523.878 854.57 527.824 831.8H545.16C558.162 831.8 570 820.305 570 807.68V730.295C570 714.121 558 697.601 556.545 695.622L522.131 650.9C514.239 641.667 501.852 630.8 487.2 630.8H429.24ZM470.64 671H516.956L543.349 705.17C546.163 709.033 553.44 720.873 553.44 730.295V735.32H470.64C462.36 735.32 454.08 727.28 454.08 719.24V687.08C454.08 678.192 462.36 671 470.64 671ZM263.64 791.6C281.914 791.6 296.76 806.015 296.76 823.76C296.76 841.505 281.914 855.92 263.64 855.92C245.366 855.92 230.52 841.505 230.52 823.76C230.52 806.015 245.366 791.6 263.64 791.6ZM478.92 791.6C497.194 791.6 512.04 806.015 512.04 823.76C512.04 841.505 497.194 855.92 478.92 855.92C460.646 855.92 445.8 841.505 445.8 823.76C445.8 806.015 460.646 791.6 478.92 791.6Z" fill="#80756F" stroke="#80756F"/>
</g>
<path d="M526 201.236C552.325 201.236 573.669 180.588 573.669 155.118C573.669 129.655 552.325 109 526 109C499.671 109 478.331 129.655 478.331 155.118C478.331 180.588 499.671 201.236 526 201.236Z" fill="#80756F"/>
<path d="M587.048 245.665C584.92 233.332 574.111 216.285 566.366 208.304C564.271 206.145 560.634 207.043 559.356 207.808C549.639 213.604 538.232 216.986 526 216.986C513.768 216.986 502.361 213.604 492.643 207.808C491.366 207.043 487.729 206.145 485.634 208.304C477.889 216.285 467.08 233.332 464.951 245.665C459.722 276.029 493.253 287 526 287C558.747 287 592.278 276.029 587.048 245.665Z" fill="#80756F"/>
<path d="M792.5 264.236C818.682 264.236 839.91 243.588 839.91 218.118C839.91 192.655 818.682 172 792.5 172C766.315 172 745.091 192.655 745.091 218.118C745.091 243.588 766.315 264.236 792.5 264.236Z" fill="#80756F"/>
<path d="M853.217 308.287C851.1 295.954 840.35 278.907 832.647 270.926C830.563 268.766 826.946 269.665 825.675 270.43C816.011 276.226 804.665 279.608 792.5 279.608C780.335 279.608 768.989 276.226 759.325 270.43C758.054 269.665 754.437 268.766 752.353 270.926C744.651 278.907 733.9 295.954 731.783 308.287C726.582 338.651 759.931 349.622 792.5 349.622C825.07 349.622 858.418 338.651 853.217 308.287Z" fill="#80756F"/>
<path d="M665.5 535.236C691.682 535.236 712.91 514.588 712.91 489.118C712.91 463.655 691.682 443 665.5 443C639.315 443 618.091 463.655 618.091 489.118C618.091 514.588 639.315 535.236 665.5 535.236Z" fill="#80756F"/>
<path d="M726.217 579.665C724.1 567.332 713.35 550.285 705.647 542.304C703.563 540.145 699.946 541.043 698.675 541.808C689.011 547.604 677.665 550.986 665.5 550.986C653.335 550.986 641.989 547.604 632.325 541.808C631.054 541.043 627.437 540.145 625.353 542.304C617.651 550.285 606.9 567.332 604.783 579.665C599.582 610.029 632.931 621 665.5 621C698.07 621 731.418 610.029 726.217 579.665Z" fill="#80756F"/>
<defs>
<clipPath id="clip0_82_169">
<rect width="414" height="402" fill="white" transform="translate(156 470)"/>
</clipPath>
</defs>
</svg>
